<?xml version="1.0" encoding="UTF-8" standalone="no"?>
<!DOCTYPE svg  PUBLIC '-//W3C//DTD SVG 1.1//EN'  'http://www.w3.org/Graphics/SVG/1.1/DTD/svg11.dtd'>
<svg xmlns="http://www.w3.org/2000/svg">
<defs>
<font id="SitkaSmall-Regular" horiz-adv-x="1024">
<font-face underline-position="-103" font-weight="400" descent="-440" panose-1="2 0 5 5 0 0 0 2 0 4" units-per-em="2200" unicode-range="U+000D-2074" bbox="-420 -502 2292 2033" font-variant="small-caps" x-height="1108" underline-thickness="102" font-family="SitkaSmall" ascent="1760" cap-height="1451"/>
<missing-glyph horiz-adv-x="2200"/>
<glyph glyph-name=".notdef" horiz-adv-x="2200"/>
<glyph glyph-name="glyph1" horiz-adv-x="0"/>
<glyph glyph-name="glyph1" horiz-adv-x="0"/>
<glyph glyph-name="uni000D" horiz-adv-x="0" unicode=""/>
<glyph glyph-name="space" horiz-adv-x="680" unicode=" "/>
<glyph glyph-name="space" horiz-adv-x="680" unicode=" "/>
<glyph glyph-name="exclam" horiz-adv-x="812" unicode="!" d="M249 131q0 33 12.5 62.5t34 51t50.5 34t62 12.5t62.5 -12.5t51 -34t34 -51t12.5 -62.5t-12.5 -61.5t-34 -49.5t-51 -33t-62.5 -12t-62 12t-50.5 33t-34 49.5t-12.5 61.5zM271 1411v40h271v-40l-77 -935h-117z"/>
<glyph glyph-name="quotedbl" horiz-adv-x="1185" unicode='&quot;' d="M214 1529v29h275v-29l-82 -639h-110zM696 1529v29h275v-29l-82 -639h-110z"/>
<glyph glyph-name="numbersign" horiz-adv-x="1555" unicode="#" d="M875 551l84 286h-279l-83 -286h278zM437 416h-240v137h279l82 281h-293v138h331l118 406h124l-117 -406h273l117 406h124l-117 -406h240v-138h-279l-81 -281h292v-137h-331l-120 -416h-124l120 416h-274l-119 -416h-125z"/>
<glyph glyph-name="dollar" horiz-adv-x="1247" unicode="$" d="M695 139q60 5 106 19.5t77 40t47 62t16 86.5q0 41 -17.5 70.5t-50 51t-78 36t-100.5 26.5v-392zM597 1114q-56 -1 -100 -9.5t-75.5 -28.5t-48 -54t-16.5 -85q0 -43 17.5 -75.5t49 -55.5t75.5 -39t98 -26v373zM152 289h46q24 -15 68 -40t98.5 -49.5t115 -43t117.5 -20.5 v415q-37 8 -74 15t-75 18q-143 39 -216 115.5t-73 193.5q0 72 34 134.5t93 111t139 80t172 40.5v133h98v-130h6t5 -1q69 -3 127 -14.5t104 -25.5t80.5 -28t56.5 -22v-214h-45q-21 13 -56.5 35t-79.5 44.5t-95 42t-103 28.5v-381q29 -8 57 -14t68 -16q88 -23 149 -53.5 t99 -68.5t55 -81.5t17 -91.5q0 -84 -37.5 -151.5t-99.5 -118t-142.5 -83.5t-165.5 -49v-264h-98v252q-11 -1 -21.5 -1.5t-21.5 -0.5q-75 0 -138 9.5t-114 22.5t-89 27t-61 23v222z"/>
<glyph glyph-name="percent" horiz-adv-x="2355" unicode="%" d="M1823 -32q60 0 102 29t68.5 84.5t38 137.5t11.5 188q0 97 -10.5 177t-36 137.5t-67 89t-104.5 31.5t-105.5 -31t-68 -87.5t-36.5 -137t-11 -179.5q0 -95 10 -175.5t35 -139t67.5 -91.5t106.5 -33zM1823 -122q-103 0 -179.5 39t-126.5 109.5t-75 167.5t-25 213 q0 107 24.5 202.5t74.5 167.5t126.5 114.5t180.5 42.5q112 0 189.5 -43.5t126 -116t70 -168t21.5 -199.5q0 -128 -29 -226.5t-82 -165.5t-128 -102t-168 -35zM1620 1558h148l-1032 -1659h-149zM531 614q60 0 102 29t68.5 84.5t38 137.5t11.5 188q0 97 -10.5 177t-36 137.5 t-67 89t-104.5 31.5t-105.5 -31t-68 -87.5t-36.5 -137t-11 -179.5q0 -95 10 -175.5t35 -139t67.5 -91.5t106.5 -33zM531 524q-103 0 -179.5 39t-126.5 109.5t-75 167.5t-25 213q0 107 24.5 202.5t74.5 167.5t126.5 114.5t180.5 42.5q112 0 189.5 -43.5t126 -116t70 -168 t21.5 -199.5q0 -128 -29 -226.5t-82 -165.5t-128 -102t-168 -35z"/>
<glyph glyph-name="ampersand" horiz-adv-x="1620" unicode="&amp;" d="M547 711q-44 -27 -79.5 -56t-61 -66.5t-39.5 -86t-14 -115.5q0 -57 21 -102.5t56.5 -77t81 -48t95.5 -16.5q53 0 102.5 9t95 27t86 44.5t75.5 61.5zM651 872q54 29 89 63.5t56 73t29.5 81.5t8.5 88q0 87 -49.5 136t-130.5 49q-39 0 -72.5 -14.5t-58.5 -40t-39 -60 t-14 -74.5t9.5 -75t31 -70t56 -73t84.5 -84zM471 791q-66 63 -107 113.5t-63 93.5t-29.5 82.5t-7.5 81.5q0 77 36.5 137t93.5 101.5t127 63t136 21.5q81 0 150.5 -22t120 -60.5t79 -91.5t28.5 -115q0 -79 -25.5 -146.5t-63.5 -116.5l-220 -138l370 -370q33 48 53.5 88.5 t33 73.5t19 59.5t10.5 46.5l-179 61v81h530v-81l-127 -50q-20 -8 -41.5 -25.5t-36.5 -43.5q-18 -32 -39.5 -67t-44.5 -72t-48.5 -74.5t-52.5 -73.5l152 -151q9 -9 19 -18t21 -17.5t23.5 -15.5t24.5 -11l168 -52v-83h-222q-48 0 -77 5.5t-52.5 20.5t-48 40t-62.5 64l-75 77 q-48 -52 -102.5 -96t-114.5 -75.5t-125.5 -49t-135.5 -17.5q-87 0 -165.5 27t-138 77t-94.5 122.5t-35 163.5q0 35 9 74t24.5 77t37 73.5t46.5 64.5z"/>
<glyph glyph-name="quotesingle" horiz-adv-x="703" unicode="&apos;" d="M214 1529v29h275v-29l-82 -639h-110z"/>
<glyph glyph-name="parenleft" d="M846 -355q-140 16 -256 86t-199.5 190t-130 289t-46.5 384q0 214 45 385t128 293.5t199.5 195t259.5 90.5v-128q-110 -21 -189 -87t-130 -173t-75 -253t-24 -326q0 -179 25 -322.5t76.5 -248t130.5 -167.5t186 -81v-127z" unicode="("/>
<glyph glyph-name="parenright" d="M178 -228q107 18 186 81t130.5 167.5t76.5 248t25 322.5q0 180 -24 326t-75 253t-130 173t-189 87v128q143 -18 259.5 -90.5t199.5 -195t128 -293.5t45 -385q0 -215 -46.5 -384t-130 -289t-200 -190t-255.5 -86v127z" unicode=")"/>
<glyph glyph-name="asterisk" horiz-adv-x="1266" unicode="*" d="M1115 1118l-381 -74l-7 -19l264 -279l12 -20l-159 -114l-13 16l-186 339h-22l-188 -339l-15 -16l-159 114l12 20l268 283l-7 15l-381 74l-19 8l61 186l22 -5l350 -167l18 14l-49 385v19h197v-19l-47 -385l16 -14l353 167l19 5l61 -184z"/>
<glyph glyph-name="plus" horiz-adv-x="1555" unicode="+" d="M201 704h498v498h157v-498h498v-154h-498v-498h-157v498h-498v154z"/>
<glyph glyph-name="comma" horiz-adv-x="715" unicode="," d="M135 -317q40 31 76.5 65t66.5 69.5t50.5 71.5t28.5 70q-43 27 -73.5 47t-50 40.5t-28.5 44t-9 57.5q0 20 9.5 43t27.5 42.5t44 32t59 12.5q51 0 87 -17t58.5 -48.5t33 -75t10.5 -97.5q0 -77 -34.5 -145.5t-83.5 -126t-102.5 -102t-92.5 -72.5z"/>
<glyph glyph-name="period" horiz-adv-x="715" unicode="." d="M199 133q0 34 12.5 63t34 51t50.5 34.5t63 12.5t63.5 -12.5t51.5 -34.5t34.5 -51t12.5 -63t-12.5 -63t-34.5 -50t-51.5 -33t-63.5 -12t-63 12t-50.5 33t-34 50t-12.5 63z"/>
<glyph glyph-name="slash" horiz-adv-x="1114" unicode="/" d="M776 1558h166l-713 -1992h-163z"/>
<glyph glyph-name="zero" horiz-adv-x="1520" unicode="0" d="M771 93q72 0 127.5 20.5t97 56t70 83.5t46 102t25 112t7.5 114q0 68 -9.5 135t-30 127t-52 111.5t-75.5 89t-100.5 58.5t-127.5 21q-72 0 -127.5 -21t-97 -57.5t-70 -85t-46 -103t-25 -112.5t-7.5 -113q0 -62 8.5 -126t27.5 -123.5t49.5 -112.5t74.5 -92t102 -61.5 t133 -22.5zM755 -31q-136 0 -248.5 44t-193 126.5t-125 200.5t-44.5 266q0 136 43.5 253t124.5 203t195.5 135.5t257.5 49.5q155 0 270 -52t190.5 -140t113 -203t37.5 -242q0 -135 -43.5 -252t-124 -203.5t-195.5 -136t-258 -49.5z"/>
<glyph glyph-name="one" horiz-adv-x="1108" unicode="1" d="M207 83l259 62q17 5 28.5 16.5t11.5 34.5v655l16 151h-22l-316 -58v97l446 198h96q-2 -36 -3.5 -78.5t-2.5 -86.5t-1.5 -88t-0.5 -84v-706q0 -23 10 -34.5t27 -16.5l248 -62v-83h-796v83z"/>
<glyph glyph-name="two" horiz-adv-x="1350" unicode="2" d="M123 132q107 69 205.5 132.5t184 124t156 120t120.5 120t77.5 124t27.5 132.5q0 63 -14.5 109.5t-44 77t-74 45.5t-104.5 15q-63 0 -129 -23t-125.5 -53.5t-107 -62t-74.5 -49.5h-53v221q28 12 70.5 29.5t99 33.5t125.5 27.5t150 11.5q109 0 203.5 -23.5t164.5 -69 t109.5 -113.5t39.5 -157q0 -73 -26 -137.5t-73.5 -123.5t-113.5 -114.5t-146.5 -111.5t-172.5 -113.5t-191 -120.5v-20l185 23h418q22 0 34.5 9.5t15.5 29.5l23 146h116v-371h-1076v132z"/>
<glyph glyph-name="three" horiz-adv-x="1327" unicode="3" d="M113 -41h53q28 -18 79.5 -48t116 -59t138 -50.5t146.5 -21.5q75 0 133 23t98 64.5t61 99.5t21 128q0 66 -18 122t-59 97.5t-109 65t-168 23.5h-149v163h128q158 0 237.5 70.5t79.5 221.5q0 55 -11 101.5t-38.5 80.5t-73.5 53t-116 19q-60 0 -123 -20t-120.5 -47.5 t-104.5 -56t-75 -46.5h-53v219q26 9 63.5 23.5t88.5 28.5t116 24t146 10q106 0 202.5 -23.5t170 -69t117.5 -112t44 -153.5q0 -48 -16 -102.5t-56 -107t-107.5 -97t-169.5 -71.5v-16q42 -5 88.5 -16t91 -30.5t85 -48.5t71.5 -70t49 -96t18 -125q0 -76 -26 -140t-71 -116 t-106 -91.5t-131 -66.5t-145 -40.5t-149 -13.5q-81 0 -151 10t-127 24t-99.5 29t-69.5 25v230z"/>
<glyph glyph-name="four" horiz-adv-x="1430" unicode="4" d="M387 271h451v542l21 166h-22l-582 -701v-21zM80 268l809 971h161v-968h285v-145h-285l-1 -301q0 -22 9.5 -32t28.5 -16l147 -46v-82h-581v82l147 46q19 6 28.5 16t9.5 32v301h-758v142z"/>
<glyph glyph-name="five" horiz-adv-x="1338" unicode="5" d="M131 -42h53q28 -18 79 -48t115.5 -59t137.5 -50t146 -21q75 0 132.5 26t96.5 71t59 105.5t20 130.5q0 92 -28 160.5t-82 114t-133 68t-181 22.5q-42 0 -84 -5t-79.5 -11.5t-67.5 -14t-46 -12.5h-57l64 775h877v-199h-761l-34 -379q22 6 52.5 11t63 9t65 6t60.5 2 q130 0 239 -31.5t188 -94t123 -156.5t44 -218q0 -79 -25 -148.5t-69 -127.5t-103.5 -103t-128 -76t-143 -47.5t-148.5 -16.5q-81 0 -151 10t-126.5 24t-98.5 28.5t-69 24.5v230z"/>
<glyph glyph-name="six" horiz-adv-x="1431" unicode="6" d="M385 707q-3 -20 -5 -45.5t-2 -56.5q0 -135 29 -231.5t78 -159t113.5 -92t135.5 -29.5q77 0 138 25.5t104 72.5t65.5 113.5t22.5 147.5q0 179 -91.5 273t-261.5 94q-50 0 -96 -8t-87 -22.5t-77 -35.5t-66 -46zM386 792q55 63 108 102t105 60t103.5 28t102.5 7 q101 0 189 -34.5t153 -97.5t102.5 -152.5t37.5 -199.5q0 -111 -40.5 -209t-115.5 -170.5t-181 -114.5t-236 -42q-143 0 -248 50.5t-174 141t-102.5 215t-33.5 273.5q0 137 23 249t64 202t96.5 160t120.5 123q44 36 92.5 67t102 53.5t113 35.5t125.5 13q48 0 92 -4.5 t82 -11.5t69.5 -14.5t53.5 -13.5v-212h-53q-27 12 -66 28t-87.5 30t-104.5 23.5t-116 9.5q-36 0 -66 -6.5t-54.5 -17.5t-44 -25t-35.5 -28q-18 -16 -42.5 -46t-49.5 -81.5t-47.5 -129t-34.5 -187.5l-15 -68z"/>
<glyph glyph-name="seven" horiz-adv-x="1328" unicode="7" d="M1062 1019v24l-135 -21h-572q-21 0 -31.5 -9.5t-13.5 -28.5l-33 -228h-124v454h1116v-93l-776 -1491h-203z"/>
<glyph glyph-name="eight" horiz-adv-x="1481" unicode="8" d="M609 744q-48 -28 -88 -62t-69.5 -74t-45.5 -85.5t-16 -96.5q0 -77 26 -139.5t74 -106.5t116 -67.5t151 -23.5q81 0 145.5 22t110 61.5t69.5 93t24 116.5q0 66 -31 114.5t-93 89t-155.5 77.5t-217.5 81zM904 837q29 25 56 55t47.5 67t33 83t12.5 104q0 63 -19 117 t-57.5 93t-96.5 61t-137 22q-66 0 -120 -19.5t-92.5 -54.5t-60 -82.5t-21.5 -102.5q0 -59 24 -104t78 -84t140.5 -76t212.5 -79zM540 768q-157 67 -232 165.5t-75 216.5q0 83 39 158t110 131.5t170 90t220 33.5q117 0 209 -29t155.5 -80.5t97 -122.5t33.5 -156 q0 -56 -17.5 -108.5t-53.5 -99t-91.5 -85.5t-131.5 -69q181 -67 264 -166t83 -235q0 -88 -40.5 -169t-117.5 -142.5t-188 -98.5t-251 -37q-134 0 -237 31.5t-173 88t-105.5 133.5t-35.5 168q0 67 23 124.5t69.5 105t115 85.5t160.5 67z"/>
<glyph glyph-name="nine" horiz-adv-x="1431" unicode="9" d="M1044 507q3 22 5 50.5t2 51.5q0 135 -29 232t-78 159.5t-113.5 92.5t-135.5 30q-77 0 -138 -25.5t-104 -73t-65.5 -114t-22.5 -148.5q0 -179 91.5 -273t261.5 -94q50 0 96 8t87 22.5t77 35t66 46.5zM240 -101h55q25 -13 67 -29t92.5 -30t105.5 -23.5t105 -9.5 q37 0 66.5 6.5t53.5 17.5t44 25.5t38 30.5q18 15 43.5 51t50.5 93.5t46.5 137t32.5 181.5l14 66l-11 6q-55 -63 -108 -102t-105 -60t-103.5 -28t-102.5 -7q-101 0 -189 34.5t-153 97.5t-102.5 152.5t-37.5 199.5q0 111 40.5 209t115.5 171t180.5 115.5t236.5 42.5 q143 0 248 -51.5t174 -142.5t102.5 -217t33.5 -274q0 -134 -23.5 -247.5t-64 -207.5t-96 -167.5t-119.5 -127.5q-44 -37 -92 -68t-102 -53.5t-113.5 -35t-125.5 -12.5q-47 0 -91 4.5t-82.5 10.5t-70 13.5t-53.5 13.5v214z"/>
<glyph glyph-name="colon" horiz-adv-x="857" unicode=":" d="M427 -7q-33 0 -62 12t-50.5 33t-34 49.5t-12.5 61.5t12.5 62t34 50.5t50.5 34t62 12.5q34 0 63 -12.5t50.5 -34t34 -50.5t12.5 -62t-12.5 -61.5t-34 -49.5t-50.5 -33t-63 -12zM427 801q-33 0 -62 12t-50.5 33t-34 49.5t-12.5 62.5q0 33 12.5 61.5t34 50t50.5 33.5t62 12 q34 0 63 -12.5t50.5 -33.5t34 -49.5t12.5 -61.5q0 -34 -12.5 -62.5t-34 -49.5t-50.5 -33t-63 -12z"/>
<glyph glyph-name="semicolon" horiz-adv-x="857" unicode=";" d="M207 -313q39 30 74.5 63.5t64.5 69t49.5 71t28.5 68.5q-42 27 -72 47t-49.5 40.5t-28.5 43.5t-9 56q0 20 9.5 42.5t27 41.5t43.5 31.5t59 12.5q51 0 86.5 -16.5t58 -47.5t32.5 -74t10 -96q0 -51 -16 -98t-42 -90t-59.5 -80.5t-68 -69.5t-67.5 -58t-58 -45zM427 801 q-33 0 -62 12t-50.5 33t-34 49.5t-12.5 62.5q0 33 12.5 61.5t34 50t50.5 33.5t62 12q34 0 63 -12.5t50.5 -33.5t34 -49.5t12.5 -61.5q0 -34 -12.5 -62.5t-34 -49.5t-50.5 -33t-63 -12z"/>
<glyph glyph-name="less" horiz-adv-x="1555" unicode="&lt;" d="M256 697l1036 540v-176l-839 -434l839 -435v-175l-1036 539v141z"/>
<glyph glyph-name="equal" horiz-adv-x="1555" unicode="=" d="M222 495h1111v-154h-1111v154zM222 912h1111v-154h-1111v154z"/>
<glyph glyph-name="greater" horiz-adv-x="1555" unicode="&gt;" d="M263 192l839 435l-839 434v176l1036 -540v-141l-1036 -539v175z"/>
<glyph glyph-name="question" horiz-adv-x="1148" unicode="?" d="M316 131q0 33 12.5 62.5t33.5 51t50 34t62 12.5t62.5 -12.5t51.5 -34t34.5 -51t12.5 -62.5t-12.5 -61.5t-34.5 -49.5t-51.5 -33t-62.5 -12t-62 12t-50 33t-33.5 49.5t-12.5 61.5zM400 781q63 7 133.5 25.5t130.5 54.5t99 94.5t39 145.5q0 63 -12.5 109t-38.5 77t-67 46 t-98 15q-53 0 -108 -18t-104 -43t-89 -50.5t-63 -41.5h-43v212q22 9 56 24.5t79 30.5t99.5 26t117.5 11q90 0 174 -28t149.5 -81.5t105 -131.5t39.5 -177q0 -100 -35.5 -176t-96.5 -132.5t-141.5 -94.5t-170.5 -62v-188h-155v353z"/>
<glyph glyph-name="at" horiz-adv-x="2287" unicode="@" d="M1421 838q-17 7 -43.5 13.5t-55 11.5t-55.5 8t-43 3q-86 0 -147.5 -40.5t-101 -105.5t-58.5 -145.5t-19 -160.5q0 -56 11.5 -103.5t36.5 -82t64.5 -53.5t95.5 -19q42 0 92 24t93 72zM1292 180q-49 -56 -93 -87.5t-82 -47t-69.5 -19t-54.5 -3.5q-73 0 -128.5 27t-93 75 t-57 114t-19.5 144t17 155t48.5 146.5t77.5 129t104 103t127 68t148 24.5q76 0 129 -26t82 -59l40 77h179l-136 -598q-6 -25 -11.5 -52t-10 -51t-7 -43t-2.5 -28q0 -12 3 -25.5t12 -24.5t26 -18.5t44 -7.5q49 0 93 21t81 57t66.5 85.5t49.5 106.5t31 119.5t11 124.5 q0 178 -52.5 306.5t-145.5 211t-219.5 121.5t-273.5 39q-100 0 -198 -29.5t-186 -84t-162.5 -133t-129 -176t-85.5 -212.5t-31 -243q0 -199 58.5 -346.5t157 -245t228.5 -146t273 -48.5q83 0 172.5 14t177.5 44t171.5 78t154.5 116l71 -106q-69 -60 -156 -108.5t-189 -83 t-217 -53t-241 -18.5q-123 0 -234 28.5t-205.5 81.5t-170.5 129.5t-129.5 171.5t-82 207.5t-28.5 238.5q0 155 37.5 293t106 254t164 208.5t212 157t250.5 99t279 34.5q175 0 319.5 -51.5t247.5 -148t159.5 -235.5t56.5 -313q0 -104 -25 -195.5t-64 -166.5t-86 -131t-90 -88 q-45 -34 -91.5 -56.5t-91.5 -35.5t-86 -18.5t-75 -5.5q-41 0 -69.5 15.5t-47 38.5t-27.5 51t-10 53h-2z"/>
<glyph glyph-name="A" horiz-adv-x="1515" unicode="A" d="M932 659l-165 403l-36 135h-22l-211 -538h434zM16 83l107 52q17 8 30 23t19 31l410 1042l116 242h136l510 -1289q6 -15 17.5 -31t26.5 -22l112 -48v-83h-543v83l167 66l-138 351h-543l-130 -345l170 -72v-83h-467v83z"/>
<glyph glyph-name="B" horiz-adv-x="1486" unicode="B" d="M780 134q170 0 252.5 60.5t82.5 196.5q0 80 -20 135t-65.5 89.5t-118 49.5t-177.5 15h-187v-546h233zM654 810q106 0 178 16t116 46t62.5 73t18.5 97q0 72 -19 124t-59 85.5t-102.5 49.5t-150.5 16h-151v-507h107zM131 83l162 56q16 5 25.5 15.5t9.5 32.5v1080 q0 20 -10.5 30t-24.5 15l-162 58v81h601q160 0 263 -27t162 -72t81.5 -103t22.5 -120q0 -69 -21.5 -126t-61 -101.5t-96.5 -76t-128 -48.5v-8q88 -5 162 -31.5t127.5 -71.5t83.5 -107.5t30 -138.5q0 -83 -23 -147t-63.5 -110.5t-97 -78t-122.5 -50t-139.5 -26.5t-149.5 -8 h-631v83z"/>
<glyph glyph-name="C" horiz-adv-x="1482" unicode="C" d="M1370 335v-148q-44 -36 -102 -74.5t-125.5 -70.5t-144 -52.5t-157.5 -20.5q-162 0 -295.5 50t-228.5 146t-147 236.5t-52 321.5q0 174 54 314.5t151 239.5t230.5 152.5t291.5 53.5q57 0 125 -7.5t136 -19t130 -24t107 -22.5v-380h-136l-31 214q-2 14 -18 25.5t-28 17.5 q-34 16 -67.5 28t-69 20t-73.5 11.5t-81 3.5q-107 0 -195.5 -35.5t-151.5 -107.5t-98 -181t-35 -256q0 -313 139.5 -473.5t403.5 -160.5q72 0 133.5 22.5t112.5 54t91.5 65.5t69.5 57h61z"/>
<glyph glyph-name="D" horiz-adv-x="1659" unicode="D" d="M810 134q127 0 219.5 37t152.5 108t88.5 174.5t28.5 235.5q0 145 -39 261.5t-111 198t-174 125t-228 43.5h-200v-1183h263zM131 83l162 56q14 5 24.5 15.5t10.5 32.5v1080q0 20 -10.5 30t-24.5 15l-162 58v81h681q73 0 155 -13.5t163.5 -46.5t156 -87t131 -135.5 t90.5 -192.5t34 -257q0 -186 -57.5 -321.5t-157 -224t-233 -131t-286.5 -42.5h-677v83z"/>
<glyph glyph-name="E" horiz-adv-x="1488" unicode="E" d="M131 83l162 56q15 5 25 15.5t10 32.5v1080q0 20 -10.5 30t-24.5 15l-162 58v81h1146v-366h-137l-30 192q-3 19 -15 28.5t-28 9.5h-520v-493h304q21 0 30 9t13 29l30 156h110v-524h-110l-30 155q-4 20 -13 29.5t-30 9.5h-304v-550h595q14 0 26.5 10t15.5 29l31 214h136 v-389h-1220v83z"/>
<glyph glyph-name="F" horiz-adv-x="1371" unicode="F" d="M131 83l162 56q16 5 25.5 15.5t9.5 32.5v1080q0 20 -10.5 30t-24.5 15l-162 58v81h1150v-366h-137l-30 192q-3 19 -15 28.5t-28 9.5h-524v-511h320q21 0 30 9t13 28l30 157h109v-524h-109l-30 155q-4 19 -13 28.5t-30 9.5h-320v-480q0 -22 11 -32.5t26 -15.5l169 -56v-83 h-622v83z"/>
<glyph glyph-name="G" horiz-adv-x="1636" unicode="G" d="M1168 509q0 20 -10 29.5t-25 13.5l-216 59v81h630v-81l-127 -59q-11 -5 -23.5 -14t-12.5 -29v-167q0 -99 1 -166t5 -106q-56 -20 -122.5 -38.5t-139.5 -33t-149.5 -23t-152.5 -8.5q-145 0 -273.5 48.5t-225 143.5t-153 236t-56.5 326q0 176 55 317t152.5 240t231 152 t291.5 53q100 0 179 -7.5t143 -19t114.5 -24t93.5 -22.5v-380h-137l-30 215q-2 15 -17.5 25.5t-28.5 15.5q-37 15 -76.5 26.5t-80.5 20t-83 13t-84 4.5q-108 0 -197 -35.5t-152 -108t-98 -182.5t-35 -258t35.5 -270.5t103.5 -210.5t167 -137t225 -49q50 0 93.5 6.5t79 16 t62 19.5t43.5 17v351z"/>
<glyph glyph-name="H" horiz-adv-x="1801" unicode="H" d="M131 83l162 56q15 5 25 15.5t10 32.5v1080q0 20 -10.5 30t-24.5 15l-162 58v81h614v-81l-161 -58q-16 -6 -26.5 -15.5t-10.5 -29.5v-445h717v445q0 20 -10.5 29.5t-27.5 15.5l-160 58v81h615v-81l-160 -58q-17 -6 -27.5 -15.5t-10.5 -29.5v-1080q0 -22 11 -32.5t27 -15.5 l160 -56v-83h-615v83l160 56q17 6 27.5 16t10.5 32v499h-717v-499q0 -22 10 -32t27 -16l161 -56v-83h-614v83z"/>
<glyph glyph-name="I" horiz-adv-x="895" unicode="I" d="M131 83l172 56q17 6 26 16t9 32v1080q0 20 -10.5 30t-24.5 15l-172 58v81h634v-81l-171 -58q-16 -5 -26.5 -15t-10.5 -30v-1080q0 -22 11 -32.5t26 -15.5l171 -56v-83h-634v83z"/>
<glyph glyph-name="J" horiz-adv-x="889" unicode="J" d="M-134 -181h59q22 -8 50.5 -17.5t59.5 -18t62.5 -14.5t58.5 -6q74 0 114.5 18t57.5 46q12 19 18.5 54.5t9.5 84.5t3.5 110t0.5 130v1061q0 20 -9 30t-26 15l-190 58v81h642v-81l-161 -58q-15 -5 -25 -15t-10 -30v-1048q0 -167 -36 -287t-101 -198t-157 -115t-204 -37 q-19 0 -47.5 2.5t-59 6t-60 8.5t-50.5 10v210z"/>
<glyph glyph-name="K" horiz-adv-x="1571" unicode="K" d="M131 83l162 56q15 5 25 15.5t10 32.5v1080q0 20 -10 30t-25 15l-162 58v81h614v-81l-161 -58q-17 -6 -27 -15.5t-10 -29.5v-563l561 604l-79 62v81h481v-81l-171 -56q-17 -5 -38.5 -16.5t-40.5 -31.5l-414 -433l481 -643q6 -7 13.5 -16t16 -17t17.5 -15t18 -10l158 -54 v-78h-504v78l59 52l-411 559l-147 -70v-432q0 -22 10 -32.5t27 -15.5l161 -56v-83h-614v83z"/>
<glyph glyph-name="L" horiz-adv-x="1374" unicode="L" d="M131 83l162 56q13 5 24 15.5t11 32.5v1080q0 20 -10 30t-25 15l-162 58v81h614v-81l-161 -58q-15 -5 -26 -15t-11 -30v-1131h519q7 0 14.5 2.5t13.5 7t10.5 12t5.5 17.5l35 303h141v-478h-1155v83z"/>
<glyph glyph-name="M" horiz-adv-x="2136" unicode="M" d="M131 83l162 64q14 5 24.5 14.5t10.5 31.5v1074q0 20 -10 30t-25 15l-162 58v81h546l340 -964l43 -165h21l385 1129h539v-81l-160 -58q-14 -5 -26 -15t-12 -30v-1080q0 -22 10.5 -32t27.5 -16l160 -56v-83h-611v83l159 56q16 5 27 15.5t11 32.5v1151h-24l-45 -147 l-346 -971l-92 -220h-121l-420 1191l-43 147h-21v-1145q0 -22 10 -31t25 -15l159 -64v-83h-542v83z"/>
<glyph glyph-name="N" horiz-adv-x="1810" unicode="N" d="M131 83l162 64q15 6 25 15t10 31v1074q0 20 -10.5 30t-24.5 15l-167 58v81h433l704 -1001l72 -126h21v938q0 20 -11.5 28.5t-25.5 14.5l-160 65v81h542v-81l-161 -65q-12 -5 -24 -14t-12 -29v-1042l-31 -230h-138l-766 1085l-69 125h-21v-1007q0 -22 11.5 -31.5 t23.5 -14.5l159 -64v-83h-542v83z"/>
<glyph glyph-name="O" horiz-adv-x="1655" unicode="O" d="M845 98q112 0 196.5 43t141 121t85 187.5t28.5 243.5q0 153 -30 275.5t-90.5 208t-152 131t-215.5 45.5q-119 0 -204 -46t-139.5 -126t-80 -187.5t-25.5 -229.5q0 -152 29.5 -275t89.5 -210t151.5 -134t215.5 -47zM827 -33q-171 0 -303 52t-222.5 150.5t-137 239.5 t-46.5 319q0 167 48.5 306t140 239.5t223.5 156t299 55.5q181 0 314.5 -57t221 -158t130 -240t42.5 -302q0 -97 -18 -191.5t-55 -179t-94.5 -156t-136.5 -123.5t-180 -81.5t-226 -29.5z"/>
<glyph glyph-name="P" horiz-adv-x="1373" unicode="P" d="M547 737q18 -5 42.5 -8.5t51.5 -5.5t55 -3t52 -1q64 0 110 16t78 41.5t51.5 57.5t30 64t14 60.5t3.5 47.5q0 61 -15.5 117.5t-55 99.5t-107.5 68.5t-173 25.5h-137v-580zM131 83l162 56q14 5 24.5 15.5t10.5 32.5v1080q0 20 -10 30t-25 15l-162 58v81h600 q113 0 211.5 -22.5t172 -70.5t115.5 -123.5t42 -180.5q0 -111 -36.5 -199.5t-102 -150.5t-156 -95t-198.5 -33q-25 0 -55.5 5.5t-62 15t-61.5 22t-53 26.5v-458q0 -22 11 -32.5t26 -15.5l169 -56v-83h-622v83z"/>
<glyph glyph-name="Q" horiz-adv-x="1659" unicode="Q" d="M845 98q112 0 196.5 43t141 121t85 187.5t28.5 243.5q0 153 -30 275.5t-90.5 208t-152 131t-215.5 45.5q-119 0 -204 -46t-139.5 -126t-80 -187.5t-25.5 -229.5q0 -152 29.5 -275t89.5 -210t151.5 -134t215.5 -47zM816 -33h-14t-14 1q-162 6 -286.5 61t-210 152.5 t-129.5 235.5t-44 311q0 167 48.5 306t140 239.5t223.5 156t299 55.5q181 0 314.5 -57t221 -158t130 -240t42.5 -302q0 -121 -29 -236.5t-89 -213t-151 -171t-214 -109.5l228 -303q4 -6 12.5 -15.5t19 -19t21.5 -17t22 -10.5l171 -52v-83h-252q-52 0 -82.5 6t-52 20.5 t-39.5 39.5t-45 64z"/>
<glyph glyph-name="R" horiz-adv-x="1557" unicode="R" d="M547 773q11 -2 34 -4t49 -4t51 -3t41 -1q82 0 142 22.5t99.5 61t59 88.5t19.5 105q0 73 -22 126t-64.5 87t-106.5 50t-148 16h-154v-544zM131 83l162 56q16 5 25.5 15.5t9.5 32.5v1080q0 20 -10.5 30t-24.5 15l-162 58v81h610q111 0 194 -15t142.5 -41.5t98 -62t61 -76.5 t31 -85.5t8.5 -88.5q0 -89 -30.5 -158t-78 -118.5t-105 -80.5t-111.5 -44l365 -484q4 -6 12.5 -15.5t19 -19t21.5 -17t22 -10.5l167 -52v-83h-252q-52 0 -82 6t-50.5 20.5t-38.5 39.5t-46 64l-348 482l-194 40v-465q0 -22 10.5 -32.5t26.5 -15.5l161 -56v-83h-614v83z"/>
<glyph glyph-name="S" horiz-adv-x="1322" unicode="S" d="M142 448h138l30 -209q2 -15 18 -28.5t27 -21.5q26 -17 56 -33.5t64 -29.5t72.5 -21t81.5 -8q82 0 147.5 17t110.5 49.5t69 78.5t24 103q0 88 -53.5 146t-144.5 96q-45 18 -89 34t-87 31.5t-85 30.5t-82 32q-124 52 -195.5 145t-71.5 224q0 87 39 160.5t106.5 127 t159 83.5t196.5 30q64 0 123.5 -6t114 -15.5t105.5 -21t98 -21.5v-380h-137l-30 199q-2 14 -18 28t-28 22q-16 11 -36.5 22t-46.5 20t-58 14.5t-71 5.5q-75 0 -133.5 -16t-98.5 -43.5t-61 -64.5t-21 -79q0 -38 10 -74t34 -68.5t65 -60.5t103 -51q41 -15 81 -29.5t80.5 -29.5 t83 -31.5t89.5 -36.5q51 -22 100.5 -53t88.5 -75.5t63 -104.5t24 -140q0 -83 -32.5 -160.5t-102 -137.5t-179 -96t-262.5 -36q-54 0 -113 8.5t-120 21.5t-123 29.5t-123 32.5v391z"/>
<glyph glyph-name="T" horiz-adv-x="1463" unicode="T" d="M416 83l170 56q17 6 26.5 16t9.5 32v1130h-333q-16 0 -28.5 -9.5t-14.5 -28.5l-30 -214h-136v386h1304v-386h-137l-30 214q-3 20 -15.5 29t-26.5 9h-333v-1130q0 -22 11 -32.5t25 -15.5l170 -56v-83h-632v83z"/>
<glyph glyph-name="U" horiz-adv-x="1731" unicode="U" d="M299 1267q0 20 -10.5 29.5t-27.5 15.5l-159 58v81h613v-81l-161 -58q-14 -5 -24.5 -15t-10.5 -30v-758q0 -37 5.5 -80.5t20 -86t40.5 -82t67 -70t99 -48.5t137 -18q78 0 137.5 18.5t103.5 49t73.5 70.5t47 82.5t25 84.5t7.5 77v756q0 20 -10.5 29t-24.5 14l-160 65v81 h541v-81l-161 -65q-14 -6 -24.5 -14.5t-10.5 -28.5v-825q0 -85 -26.5 -153t-71 -120.5t-102.5 -90t-121 -61.5t-126.5 -35.5t-119.5 -11.5q-141 0 -247 36t-177 96t-106.5 137t-35.5 159v874z"/>
<glyph glyph-name="V" horiz-adv-x="1521" unicode="V" d="M172 1270q-6 14 -17 28t-28 22l-111 50v81h542v-81l-166 -67l361 -915l34 -131h22l395 1039l-166 74v81h466v-81l-108 -54q-15 -8 -28.5 -21t-19.5 -29l-411 -1046l-113 -240h-140z"/>
<glyph glyph-name="W" horiz-adv-x="2318" unicode="W" d="M177 1270q-7 14 -16.5 28t-26.5 22l-105 50v81h533v-81l-171 -67l281 -885l26 -137h23l289 875l107 265h169l327 -1003l30 -137h21l331 1015l-175 74v81h472v-81l-103 -54q-14 -8 -28 -21.5t-19 -28.5l-344 -1019l-103 -261h-171l-324 1004l-33 135h-20l-290 -878 l-106 -261h-173z"/>
<glyph glyph-name="X" horiz-adv-x="1524" unicode="X" d="M45 83l133 46q17 6 32.5 21t28.5 32l403 526l-391 564q-6 8 -12.5 15.5t-14 14t-15.5 12t-17 8.5l-127 48v81h548v-81l-122 -67l238 -338l60 -118h8l326 451l-119 72v81h460v-81l-123 -48q-12 -5 -28 -19t-30 -31l-391 -515l401 -575q14 -19 29 -33t31 -20l126 -46v-83 h-548v83l123 66l-247 355l-60 115h-8l-341 -466l119 -70v-83h-472v83z"/>
<glyph glyph-name="Y" horiz-adv-x="1458" unicode="Y" d="M411 83l169 56q17 5 27 15.5t10 32.5v345l-415 738q-8 14 -19.5 28.5t-27.5 21.5l-116 50v81h541v-81l-162 -67l285 -487l52 -123h21l335 604l-163 73v81h470v-81l-113 -54q-14 -7 -27 -21.5t-21 -28.5l-420 -729v-350q0 -22 9.5 -32.5t24.5 -15.5l171 -56v-83h-631v83z "/>
<glyph glyph-name="Z" horiz-adv-x="1369" unicode="Z" d="M67 107l835 1108l70 78v22h-619q-14 0 -26 -9.5t-15 -28.5l-30 -212h-137v386h1117v-104l-839 -1108l-70 -81v-22h702q14 0 27 8.5t16 30.5l30 241h136v-416h-1197v107z"/>
<glyph glyph-name="bracketleft" horiz-adv-x="990" unicode="[" d="M248 1558h563v-120h-368v-1671h368v-122h-563v1913z"/>
<glyph glyph-name="backslash" horiz-adv-x="1114" unicode="\" d="M171 1558h166l710 -1992h-163z"/>
<glyph glyph-name="bracketright" horiz-adv-x="990" unicode="]" d="M179 -233h368v1671h-368v120h563v-1913h-563v122z"/>
<glyph glyph-name="asciicircum" horiz-adv-x="1555" unicode="^" d="M723 1451h111l486 -769h-190l-351 569l-354 -569h-190z"/>
<glyph glyph-name="underscore" horiz-adv-x="1285" unicode="_" d="M-5 -152h1295v-130h-1295v130z"/>
<glyph glyph-name="grave" d="M658 1225q-69 49 -119 84.5t-87.5 62t-64.5 47t-51 40.5q-21 16 -35.5 29.5t-24.5 27.5t-14.5 30t-4.5 36q0 17 7 33t20 28t30.5 19.5t38.5 7.5t39 -4t35 -14t34.5 -27.5t37.5 -45.5q19 -27 39.5 -56t46 -65.5t58 -82t75.5 -105.5z" unicode="`"/>
<glyph glyph-name="a" horiz-adv-x="1290" unicode="a" d="M839 550q-109 0 -199 -8t-154 -31.5t-99.5 -67t-35.5 -115.5q0 -57 19 -95t48 -60t65 -31t70 -9t74.5 7t80 21.5t74 36.5t57.5 53v299zM845 167q-44 -61 -95.5 -98t-103.5 -57t-101.5 -26.5t-89.5 -6.5q-78 0 -138.5 26.5t-102 70t-63.5 100t-22 117.5q0 71 25 126.5 t66.5 97.5t96 71.5t114 48t120 27t113.5 8.5q11 0 36 -2t52.5 -5t51.5 -6t35 -4v138q0 59 -16.5 99t-45.5 64.5t-69 35t-87 10.5q-51 0 -104 -18.5t-101.5 -44t-90 -53.5t-69.5 -46h-45v207q48 16 95 32t99.5 29t112 21t133.5 8q76 0 148 -14.5t127.5 -53.5t89 -108 t33.5 -178v-565q0 -20 9 -36.5t23 -28.5t32 -18.5t35 -6.5q12 0 24 3t25 8t25.5 11.5t24.5 12.5h18v-95q-15 -11 -40 -26t-54.5 -29t-59 -24t-53.5 -10q-49 0 -86 12t-61.5 35.5t-37 58.5t-12.5 82h-16z"/>
<glyph glyph-name="b" horiz-adv-x="1354" unicode="b" d="M437 190q21 -23 53.5 -40t67 -28.5t66.5 -17.5t52 -6q87 0 150.5 34.5t105.5 94t62.5 139t20.5 169.5q0 94 -19 175t-59.5 141t-104 94t-151.5 34q-26 0 -58.5 -6t-65.5 -19.5t-64.5 -36t-55.5 -55.5v-672zM228 1363q0 20 -12.5 30t-25.5 16l-138 64v85h385v-554v-59 q44 66 95.5 104.5t101 58t92.5 24.5t72 5q103 0 184.5 -40.5t138 -112.5t86.5 -170.5t30 -213.5q0 -128 -36.5 -241.5t-106.5 -198.5t-172.5 -135t-235.5 -50q-63 0 -124.5 6.5t-119.5 18.5t-112 30t-102 42v1291z"/>
<glyph glyph-name="c" horiz-adv-x="1146" unicode="c" d="M1070 284v-127q-39 -31 -85 -63t-100 -58t-116 -42.5t-133 -16.5q-120 0 -216 41.5t-163.5 116t-103.5 178.5t-36 230q0 89 24 167.5t66 144t99 118t122.5 88.5t136.5 55t142 19q59 0 109 -9.5t90.5 -23t70.5 -27.5t50 -23v-216h-51q-41 23 -80 49t-82.5 48t-94 36.5 t-114.5 14.5q-18 0 -41 -4.5t-46.5 -13t-44.5 -21t-35 -28.5q-18 -19 -35 -43.5t-30.5 -63t-21.5 -95.5t-8 -140q0 -103 23 -184t67.5 -137t110.5 -85.5t153 -29.5q54 0 102.5 15t91 36.5t78.5 47t65 46.5h36z"/>
<glyph glyph-name="d" horiz-adv-x="1379" unicode="d" d="M919 947q-20 13 -52.5 22t-67 15t-67 8.5t-53.5 2.5q-87 0 -150.5 -32.5t-105 -88t-62 -129.5t-20.5 -158q0 -96 19 -178t59 -143t103 -95.5t151 -34.5q27 0 61 6.5t68.5 20t65.5 34.5t51 51v699zM941 167h-17q-45 -67 -97 -105t-102.5 -56.5t-94.5 -22.5t-74 -4 q-102 0 -183.5 40.5t-138 112.5t-86.5 170t-30 213q0 128 36.5 241.5t104.5 198t166 133.5t221 49q49 0 89.5 -9t74.5 -24t61 -34.5t48 -40.5v48v286q0 20 -10.5 30t-26.5 16l-166 64v85h412v-1343q0 -20 12.5 -30t26.5 -16l126 -54v-85l-352 -50v187z"/>
<glyph glyph-name="e" horiz-adv-x="1249" unicode="e" d="M900 694q0 76 -14 135.5t-45.5 100.5t-81.5 62.5t-122 21.5q-62 0 -114.5 -21t-92.5 -62t-65 -100.5t-31 -136.5h566zM1121 277v-128q-40 -31 -92 -61.5t-113 -55t-129 -40t-138 -15.5q-113 0 -211.5 37t-171 109.5t-114.5 179t-42 244.5q0 126 40 234t111.5 187 t170.5 124t217 45q112 0 200 -35t149 -95t93.5 -140.5t32.5 -170.5q0 -10 -0.5 -25.5t-1.5 -32.5t-3 -33t-5 -27h-786q0 -220 104 -329.5t290 -109.5q58 0 112 14t101 35t86 45t66 44h34z"/>
<glyph glyph-name="f" horiz-adv-x="900" unicode="f" d="M106 82l146 44q18 5 28.5 15.5t10.5 30.5v750h-206v125h210q10 148 45.5 249t92.5 163t135 89t173 27q18 0 45 -2.5t56.5 -6.5t57 -8t47.5 -8v-193h-45q-22 7 -46.5 16t-52 17t-58 13.5t-64.5 5.5q-61 0 -99 -13t-57 -33q-6 -6 -10.5 -30.5t-8 -65t-5.5 -96t-2 -124.5 h315v-125h-314v-750q0 -20 12 -31t27 -15l171 -44v-82h-604v82z"/>
<glyph glyph-name="g" horiz-adv-x="1300" unicode="g" d="M422 20q-21 -6 -43 -20.5t-40 -37t-30 -54t-12 -71.5q0 -42 16.5 -74.5t44 -56t62.5 -39t72.5 -25t74.5 -13.5t67 -4q66 0 130.5 12t115.5 39.5t82.5 71.5t31.5 109q0 27 -12.5 56t-38.5 52.5t-67.5 39t-98.5 15.5h-355zM601 486q56 0 100.5 15.5t75.5 49t47.5 86.5 t16.5 127q0 70 -17 120.5t-48 83.5t-74.5 48.5t-96.5 15.5q-41 0 -80.5 -13t-70.5 -44t-50 -82.5t-19 -128.5q0 -74 16 -127t44.5 -86.5t68.5 -49t87 -15.5zM314 42q-27 9 -55.5 25t-51.5 39.5t-38 55t-15 71.5q0 48 16.5 85.5t43.5 64.5t60.5 44.5t66.5 24.5v14 q-25 15 -55.5 39t-57.5 59t-45 81t-18 105q0 86 30.5 157.5t88 122.5t139.5 79t185 28q80 0 140.5 -8t118.5 -21h355v-127h-248v-12q17 -25 31.5 -46.5t25.5 -46.5t17.5 -55.5t6.5 -73.5q0 -78 -30.5 -144.5t-88.5 -115.5t-142 -76.5t-191 -27.5q-34 0 -67.5 4t-62 9.5 t-51 12.5t-34.5 13q-11 -6 -22 -16t-20 -24t-14.5 -33t-5.5 -41q0 -18 6.5 -35.5t17 -33t24.5 -27.5t28 -18h391q107 0 180 -24.5t117.5 -64.5t64 -89.5t19.5 -99.5q0 -92 -45.5 -168.5t-124.5 -131.5t-186 -86t-230 -31q-106 0 -197 18.5t-158 54t-105 87.5t-38 119 q0 51 18.5 91.5t49 71.5t71 52t85.5 32v17z"/>
<glyph glyph-name="h" horiz-adv-x="1408" unicode="h" d="M89 82l125 44q20 7 29 16.5t9 29.5v1191q0 20 -12 30t-26 16l-138 64v85h385v-546v-57q46 60 91.5 96t90 55t88.5 25t87 6q73 0 137.5 -21t112.5 -66t76 -115t28 -167v-591q0 -24 11 -34.5t26 -16.5l115 -44v-82h-500v82l100 44q16 7 27.5 17t11.5 34v498q0 72 -9 127 t-35 93t-73 57.5t-122 19.5q-35 0 -71 -4.5t-71 -16t-66 -31.5t-55 -50v-698q0 -20 10.5 -29t27.5 -17l93 -44v-82h-503v82z"/>
<glyph glyph-name="i" horiz-adv-x="787" unicode="i" d="M100 82l163 44q17 5 28.5 15.5t11.5 30.5v709q0 20 -11.5 30.5t-27.5 15.5l-162 54v85l410 50v-944q0 -20 12 -31t26 -15l163 -44v-82h-613v82zM388 1306q-30 0 -57.5 9t-48.5 25.5t-33.5 41t-12.5 56.5q0 34 12.5 59.5t33.5 43t48.5 26t57.5 8.5q36 0 65 -7.5 t49.5 -23.5t32 -39.5t11.5 -55.5q0 -34 -12 -60.5t-33 -45t-50 -28t-63 -9.5z"/>
<glyph glyph-name="j" horiz-adv-x="791" unicode="j" d="M-99 -281h46q21 -6 47 -14.5t54 -16t56.5 -13t54.5 -5.5q69 0 105 18t53 44q12 18 18.5 48t10 73.5t4.5 102t1 132.5v793q0 20 -12.5 31t-26.5 15l-190 54v85l438 50v-1016q0 -153 -34 -266.5t-95.5 -187.5t-147 -110.5t-187.5 -36.5q-18 0 -43.5 1.5t-52.5 4.5t-53 7 t-46 8v199zM432 1306q-30 0 -57.5 9t-48.5 25.5t-33.5 41t-12.5 56.5q0 34 12.5 59.5t33.5 43t48.5 26t57.5 8.5q36 0 65 -7.5t49.5 -23.5t32 -39.5t11.5 -55.5q0 -34 -12 -60.5t-33 -45t-50 -28t-63 -9.5z"/>
<glyph glyph-name="k" horiz-adv-x="1334" unicode="k" d="M88 82l125 44q18 6 28.5 16t10.5 30v1191q0 20 -12.5 30t-25.5 16l-137 64v85h384v-1006l431 413l-106 63v80h452v-80l-129 -48q-19 -7 -38 -19t-39 -30l-277 -252l361 -507q10 -14 30 -27.5t36 -19.5l112 -43v-82h-446v82l53 48l-296 410l-148 -55v-313q0 -20 12 -30 t26 -16l104 -44v-82h-511v82z"/>
<glyph glyph-name="l" horiz-adv-x="766" unicode="l" d="M79 82l163 44q17 5 28 15.5t11 30.5v1191q0 20 -13 30.5t-26 15.5l-173 64v85h421v-1386q0 -20 12.5 -31t26.5 -15l161 -44v-82h-611v82z"/>
<glyph glyph-name="m" horiz-adv-x="2103" unicode="m" d="M106 82l126 44q14 5 26 15.5t12 30.5v721q0 20 -12 30t-26 16l-126 54v85l351 50v-173h16q46 60 92 96t91 55t88 25t84 6q54 0 103.5 -11.5t91.5 -36t75 -64t53 -96.5q56 73 106 114.5t95 62.5t86 26t80 5q71 0 134.5 -21t111 -66t75.5 -115t28 -167v-591q0 -24 11 -34.5 t27 -16.5l112 -44v-82h-499v82l101 44q16 7 27.5 17t11.5 34v498q0 72 -8.5 127t-33.5 93t-70.5 57.5t-118.5 19.5q-30 0 -64.5 -4.5t-68.5 -16.5t-65.5 -32t-55.5 -51v-691q0 -24 11 -33.5t27 -17.5l89 -44v-82h-472v82l97 44q17 8 28 17.5t11 33.5v498q0 72 -8.5 127 t-33 93t-69.5 57.5t-117 19.5q-33 0 -68.5 -4.5t-69.5 -16t-65 -31.5t-54 -50v-698q0 -20 12 -29.5t26 -16.5l92 -44v-82h-503v82z"/>
<glyph glyph-name="n" horiz-adv-x="1426" unicode="n" d="M105 82l127 44q17 6 27.5 16t10.5 30v721q0 20 -11.5 29.5t-26.5 16.5l-125 54v85l350 50v-173h16q47 60 93.5 96t92 55t90 25t87.5 6q72 0 136.5 -21t113 -66t76.5 -115t28 -167v-591q0 -24 10.5 -35t27.5 -16l112 -44v-82h-500v82l100 44q17 8 29 17.5t12 33.5v498 q0 72 -9 127t-34.5 93t-72.5 57.5t-122 19.5q-33 0 -69.5 -4.5t-71.5 -16t-67 -31.5t-56 -50v-698q0 -20 12.5 -30.5t26.5 -15.5l93 -44v-82h-506v82z"/>
<glyph glyph-name="o" horiz-adv-x="1324" unicode="o" d="M672 98q88 0 147 40.5t93.5 104t49 141t14.5 152.5q0 91 -17.5 177t-56.5 153t-100.5 107.5t-149.5 40.5q-59 0 -104 -18.5t-79 -50.5t-57 -74.5t-37.5 -90.5t-20.5 -99.5t-6 -100.5q0 -55 6.5 -112t22 -110.5t40 -100.5t60.5 -82.5t84.5 -56t110.5 -20.5zM657 -25 q-120 0 -219.5 40t-170.5 114.5t-110 182t-39 242.5q0 124 38.5 230.5t110 185t173 123t227.5 44.5q137 0 238.5 -47t168 -126.5t99.5 -184.5t33 -221q0 -123 -38.5 -229.5t-109.5 -185t-172.5 -123.5t-228.5 -45z"/>
<glyph glyph-name="p" horiz-adv-x="1389" unicode="p" d="M468 180q24 -14 57 -23.5t67.5 -15.5t66.5 -8.5t53 -2.5q86 0 149.5 31.5t105 86.5t62 128.5t20.5 156.5q0 94 -19.5 175.5t-61 141.5t-104.5 94.5t-150 34.5q-26 0 -59 -6t-66.5 -19.5t-65.5 -36.5t-55 -56v-681zM89 -420l132 47q17 6 27.5 15t10.5 29v1222q0 20 -12 30 t-26 16l-126 54v85l352 50v-183h17q44 66 96 104.5t102 58t94 24.5t73 5q103 0 185 -40.5t139 -112t87.5 -169.5t30.5 -212q0 -127 -36 -239t-104 -195t-166 -131.5t-221 -48.5q-48 0 -89.5 9t-76 24t-62 34.5t-48.5 40.5v-48v-376q0 -20 12 -29.5t27 -14.5l160 -49v-81 h-578v81z"/>
<glyph glyph-name="q" horiz-adv-x="1356" unicode="q" d="M919 918q-23 24 -53 42t-62.5 30t-64 18t-57.5 6q-87 0 -151.5 -35t-106.5 -94t-62.5 -137.5t-20.5 -165.5q0 -93 19 -172.5t59.5 -138t103.5 -92t151 -33.5q25 0 59 5.5t68 17.5t65.5 32t52.5 49v668zM717 -420l164 49q16 5 27 14.5t11 29.5v430v64q-45 -68 -96 -104 t-100 -52.5t-92 -19t-72 -2.5q-102 0 -184 40t-139 110.5t-87.5 167.5t-30.5 211q0 129 38 242t110.5 196.5t177.5 132t240 48.5q132 0 245 -26t199 -71v-1369q0 -20 12.5 -29.5t27.5 -14.5l131 -47v-81h-582v81z"/>
<glyph glyph-name="r" horiz-adv-x="1087" unicode="r" d="M112 82l126 44q16 5 27 15.5t11 30.5v706q0 26 -15 39t-26 18l-133 58v85l367 50v-237h13q52 73 96.5 120.5t85 75.5t78.5 39t76 11q23 0 49.5 -2.5t53 -9.5t51.5 -20t46 -34v-253h-143l-29 74q-5 13 -16 24t-26 19t-32 12.5t-34 4.5q-45 0 -81.5 -17t-67 -43t-56 -56 t-48.5 -57v-607q0 -20 10.5 -30.5t27.5 -15.5l163 -44v-82h-574v82z"/>
<glyph glyph-name="s" horiz-adv-x="1118" unicode="s" d="M148 300h139l30 -90q6 -19 15.5 -31.5t22.5 -20.5q21 -12 45 -21t50 -15.5t54 -10t56 -3.5q42 0 87 9.5t82 30t60.5 51.5t23.5 74q0 36 -11 61.5t-32 45t-52.5 33.5t-73.5 26q-59 17 -117 34t-117 34q-62 18 -108 47t-77 67.5t-46 84t-15 96.5q0 72 39 133.5t104 106.5 t150 70t177 25q48 0 90.5 -3.5t81.5 -10t76 -15.5t76 -20v-256h-138l-30 98q-5 15 -17 26.5t-23 17.5q-35 17 -76 23.5t-86 6.5q-49 0 -90 -9.5t-71 -27.5t-46.5 -45t-16.5 -62q0 -36 11 -63.5t36 -50t64.5 -40.5t95.5 -35q24 -7 48 -14.5t48 -14.5t48 -14.5t48 -14.5 q66 -20 114 -45t79 -58.5t45.5 -76.5t14.5 -99q0 -81 -41.5 -147.5t-109 -113.5t-154 -72.5t-175.5 -25.5q-57 0 -110 6.5t-101.5 17t-92.5 23.5t-84 26v252z"/>
<glyph glyph-name="t" horiz-adv-x="913" unicode="t" d="M245 983h-179v105q44 6 79.5 12t61.5 22t41.5 45.5t18.5 83.5l10 155l177 32v-330h392v-125h-392v-704q0 -37 22.5 -62.5t54.5 -41.5t67 -23.5t61 -7.5q18 0 40.5 3.5t44 8.5t40.5 11t30 11h41v-90q-14 -9 -46.5 -26.5t-75 -35.5t-91.5 -31t-95 -13q-60 0 -114.5 15 t-96 43t-66.5 68.5t-25 91.5v783z"/>
<glyph glyph-name="u" horiz-adv-x="1400" unicode="u" d="M235 893q0 20 -11.5 30t-25.5 16l-126 54v85l372 50v-687q0 -71 8.5 -126.5t33 -93.5t70.5 -57.5t121 -19.5q34 0 70.5 4.5t71.5 16t66.5 31t55.5 49.5v648q0 20 -11.5 29.5t-27.5 16.5l-125 54v85l373 50v-913q0 -20 11.5 -29.5t26.5 -16.5l125 -54v-85l-350 -50v182 h-15q-47 -61 -93.5 -97t-92.5 -55t-90.5 -25t-87.5 -6q-72 0 -136 21t-111 65.5t-74.5 114.5t-27.5 168v545z"/>
<glyph glyph-name="v" horiz-adv-x="1300" unicode="v" d="M184 939q-8 18 -21 30.5t-26 18.5l-84 40v80h486v-80l-151 -54l246 -569l44 -160h21l275 692l-138 91v80h417v-80l-90 -70q-13 -10 -28 -23.5t-21 -27.5l-287 -691l-109 -226h-133z"/>
<glyph glyph-name="w" horiz-adv-x="1987" unicode="w" d="M184 939q-6 17 -19 29t-28 20l-84 40v80h486v-80l-151 -54l206 -563l40 -166h22l214 637l97 226h137l259 -691l46 -172h22l231 692l-140 91v80h418v-80l-89 -70q-14 -11 -29 -23.5t-20 -27.5l-240 -691l-107 -226h-142l-266 701l-35 142h-18l-207 -617l-105 -226h-143z "/>
<glyph glyph-name="x" horiz-adv-x="1312" unicode="x" d="M79 82l100 48q16 8 33 22.5t29 29.5l298 363l-288 392q-13 18 -26.5 31t-31.5 20l-105 40v80h462v-80l-83 -50l154 -209l58 -114h14l237 307l-62 66v80h353v-80l-100 -50q-14 -7 -29.5 -20.5t-29.5 -30.5l-289 -348l298 -407q14 -19 29 -32.5t31 -19.5l102 -38v-82h-462 v82l85 48l-167 226l-57 113h-14l-246 -322l63 -65v-82h-356v82z"/>
<glyph glyph-name="y" horiz-adv-x="1294" unicode="y" d="M108 -255h53q13 -7 34 -14.5t43 -14t41.5 -10.5t29.5 -4q54 0 89 8t61 28q18 14 33.5 36t32 57t36.5 86t46 122l-71 112l-353 792q-8 18 -20 28.5t-28 16.5l-81 40v80h485v-80l-150 -54l256 -562l47 -125h22l250 650l-134 91v80h416v-80l-94 -70q-11 -8 -26.5 -20.5 t-20.5 -26.5l-422 -1083q-38 -98 -82.5 -161.5t-95.5 -101t-107.5 -52t-117.5 -14.5q-11 0 -33.5 2t-49 5t-51 7.5t-38.5 9.5v222z"/>
<glyph glyph-name="z" horiz-adv-x="1170" unicode="z" d="M110 77l593 811l72 75v20h-415q-22 0 -31.5 -13t-13.5 -28l-30 -114h-134v280h907v-62l-604 -826l-71 -74v-21h464q20 0 30 11.5t14 28.5l29 136h136v-301h-946v77z"/>
<glyph glyph-name="braceleft" horiz-adv-x="1131" unicode="{" d="M476 271q0 73 -22 121.5t-62.5 79t-99 45.5t-130.5 20v129q73 6 131.5 21t99 45t62 78.5t21.5 121.5v225q0 108 34.5 184t97.5 124t151 70.5t195 22.5v-121q-48 -3 -97 -9.5t-89.5 -28t-66 -64t-25.5 -117.5v-204q0 -107 -26.5 -177t-73 -114t-109 -67.5t-135.5 -38.5 v-31q73 -15 135.5 -38.5t109 -67t73 -113.5t26.5 -178v-203q0 -75 25.5 -117.5t66 -64.5t89.5 -28.5t97 -9.5v-121q-107 0 -195 21.5t-151 69.5t-97.5 124.5t-34.5 186.5v224z"/>
<glyph glyph-name="bar" horiz-adv-x="1114" unicode="|" d="M478 1558h157v-1992h-157v1992z"/>
<glyph glyph-name="braceright" horiz-adv-x="1131" unicode="}" d="M178 -234q48 3 97 9.5t89.5 28.5t66 64.5t25.5 117.5v203q0 108 26.5 178t73 113.5t109 67t135.5 38.5v31q-73 15 -135.5 38.5t-109 67.5t-73 114t-26.5 177v204q0 75 -25.5 117.5t-66 64t-89.5 28t-97 9.5v121q107 0 195 -22.5t151 -70.5t97.5 -124t34.5 -184v-225 q0 -73 21.5 -121.5t62 -78.5t98.5 -45t132 -21v-129q-72 -5 -130.5 -20t-99 -45.5t-62.5 -79t-22 -121.5v-224q0 -110 -34.5 -186.5t-97.5 -124.5t-151 -69.5t-195 -21.5v121z"/>
<glyph glyph-name="asciitilde" horiz-adv-x="1555" unicode="~" d="M183 459q16 48 50 106.5t84 110t113.5 86.5t137.5 35q83 0 147.5 -21.5t120 -47.5t107.5 -47.5t110 -21.5q40 0 70 12t55 35.5t47 57.5t46 78l102 -40q-17 -48 -51.5 -107t-84 -110.5t-112.5 -86.5t-137 -35q-55 0 -101.5 12t-87.5 30t-78 38.5t-73 38.5t-71.5 30 t-74.5 12q-40 0 -70.5 -16t-55.5 -43.5t-46.5 -65t-44.5 -80.5z"/>
<glyph glyph-name="exclamdown" horiz-adv-x="812" unicode="¡" d="M271 -331l77 935h117l77 -935v-40h-271v40zM249 959q0 33 12.5 61.5t34.5 49.5t51.5 33t62.5 12t62 -12t50 -33t33.5 -49.5t12.5 -61.5t-12.5 -62.5t-33.5 -51t-50 -34t-62 -12.5t-62.5 12.5t-51.5 34t-34.5 51t-12.5 62.5z"/>
<glyph glyph-name="cent" horiz-adv-x="1330" unicode="¢" d="M724 996q-5 1 -9 1h-9q-18 0 -41 -5.5t-46.5 -15t-44.5 -22.5t-35 -29q-17 -19 -35.5 -43.5t-33.5 -63t-24.5 -95t-9.5 -140.5q0 -183 74 -296.5t214 -138.5v848zM724 -15q-117 2 -211.5 44t-161 117t-102.5 178t-36 227q0 120 43.5 221t115.5 176.5t164 124t188 63.5 v195h98v-188h10.5t10.5 -1q53 -3 98.5 -12.5t83 -22.5t66 -25.5t46.5 -21.5v-216h-51q-31 21 -61 41t-61.5 37.5t-66.5 33t-75 27.5v-840q4 0 7.5 0.5t8.5 0.5q48 5 92 21.5t82.5 38.5t71.5 45.5t60 42.5h36v-127q-33 -27 -72 -54.5t-84 -51.5t-95.5 -42t-106.5 -26v-256 h-98v250z"/>
<glyph glyph-name="sterling" horiz-adv-x="1451" unicode="£" d="M240 132q49 24 77 58.5t42 73.5t17.5 81t3.5 81v146h-155v91h155v156q0 94 37 176t108.5 142.5t177 95t242.5 34.5q45 0 85.5 -4.5t74.5 -10.5t61.5 -12.5t48.5 -11.5v-211h-53q-24 12 -57 27t-76 28.5t-96 22.5t-117 9q-57 0 -93.5 -11.5t-70.5 -39.5q-21 -18 -33 -37 t-18.5 -41.5t-8 -50.5t-1.5 -63v-198h427v-91h-427v-148q0 -32 -10 -66.5t-28.5 -66t-43.5 -57.5t-55 -42v-20l128 17h508q22 0 32.5 8.5t12.5 20.5l31 189h116v-407h-1042v132z"/>
<glyph glyph-name="currency" horiz-adv-x="1186" unicode="¤" d="M269 729q0 -74 23.5 -136t66.5 -107t102 -70.5t131 -25.5q76 0 136.5 28t102.5 75t64 108t22 128q0 73 -24 135.5t-67 108t-103 71t-131 25.5q-77 0 -137 -28t-101 -75t-63 -108.5t-22 -128.5zM155 1249l162 -161q119 86 275 86q163 0 277 -87l163 162l83 -82l-163 -163 q89 -122 89 -275q0 -152 -90 -276l164 -163l-83 -83l-164 164q-125 -86 -276 -86q-159 0 -274 85l-163 -163l-83 83l162 161q-89 119 -89 278q0 161 88 276l-161 162z"/>
<glyph glyph-name="yen" horiz-adv-x="1515" unicode="¥" d="M446 83l169 56q17 5 27 15.5t10 32.5v126h-438v108h438v69l-61 97h-377v108h310l-261 384q-9 14 -20 25.5t-27 16.5l-116 43v81h532v-81l-162 -57l253 -384l55 -115h21l316 494l-163 62v81h463v-70l-113 -46q-15 -8 -26.5 -18.5t-21.5 -24.5l-274 -391h314v-108h-383 l-60 -81v-85h443v-108h-442v-126q0 -22 9.5 -32.5t24.5 -15.5l171 -56v-83h-611v83z"/>
<glyph glyph-name="brokenbar" horiz-adv-x="1114" unicode="¦" d="M478 386h157v-820h-157v820zM478 1558h157v-820h-157v820z"/>
<glyph glyph-name="section" horiz-adv-x="1393" unicode="§" d="M747 356q32 -12 60 -24.5t54 -24.5q27 15 49.5 35t39.5 44t26.5 50.5t9.5 53.5q0 49 -25.5 91t-70.5 77.5t-108 66.5t-138 59q-28 11 -56.5 23.5t-52.5 24.5q-36 -18 -60.5 -40.5t-39.5 -46t-21 -47t-6 -43.5q0 -53 24.5 -95t69.5 -77.5t107.5 -66.5t137.5 -60zM276 -75 h47q17 -11 53.5 -30t89 -37t118.5 -31.5t143 -13.5q81 0 125.5 44t44.5 132q0 45 -23.5 78t-65 60t-97.5 51t-122 51q-109 44 -182 88t-117.5 88t-63 89t-18.5 92q0 48 14.5 91t46.5 83l167 126q-78 54 -112 113t-34 122q0 53 21 100t56.5 87t83 71t100.5 53t108 33.5 t106 11.5q69 0 126 -6.5t101 -15.5t74.5 -20t47.5 -20v-199h-47q-17 11 -52.5 30t-87.5 37t-118 31.5t-143 13.5q-85 0 -127 -43t-42 -125q0 -46 23 -80.5t63.5 -63t97 -53.5t123.5 -52q109 -44 182.5 -88t117.5 -88.5t62.5 -90t18.5 -92.5q0 -54 -18 -96t-50 -86l-159 -117 q38 -26 65.5 -52.5t45.5 -54t27 -56.5t9 -59q0 -60 -21 -110.5t-57 -91.5t-84 -71.5t-101 -51.5t-108.5 -31.5t-107.5 -10.5q-68 0 -125 7t-102 16.5t-76 21t-47 20.5v196z"/>
<glyph glyph-name="dieresis" d="M278 1289q-26 0 -49.5 8t-41.5 23t-29 37t-11 50q0 31 11 54t29 38.5t41.5 23.5t49.5 8q30 0 55.5 -7t43.5 -21t28 -35.5t10 -50.5q0 -30 -10.5 -54t-29 -40.5t-43.5 -25t-54 -8.5zM740 1289q-26 0 -49.5 8t-41.5 23t-29 37t-11 50q0 31 11 54t29 38.5t41.5 23.5t49.5 8 q30 0 55.5 -7t43.5 -21t28 -35.5t10 -50.5q0 -30 -10.5 -54t-29 -40.5t-43.5 -25t-54 -8.5z" unicode="¨"/>
<glyph glyph-name="copyright" horiz-adv-x="2049" unicode="©" d="M1424 353v-101q-31 -24 -71 -49t-87 -45.5t-99 -33.5t-107 -13q-112 0 -203.5 33t-157 95.5t-101 153.5t-35.5 207q0 112 37 202.5t103.5 155t158 99.5t200.5 35q39 0 85.5 -5.5t93 -14t89.5 -17.5t75 -16v-255h-101l-23 139q-2 8 -11 14.5t-16 9.5q-46 22 -91.5 33.5 t-105.5 11.5q-72 0 -130 -22.5t-99.5 -67.5t-64 -113t-22.5 -159q0 -199 90 -300.5t270 -101.5q48 0 89.5 14.5t76 34.5t62 41t47.5 35h48zM1027 -189q109 0 209 28t186.5 79.5t157 123.5t120.5 160.5t77.5 190t27.5 211.5q0 109 -27.5 209.5t-77.5 188t-120.5 159t-157 123 t-186.5 79.5t-209 28q-110 0 -210.5 -28t-187.5 -79.5t-158 -123t-121 -159t-77.5 -188t-27.5 -209.5q0 -110 27.5 -211.5t77.5 -190t121 -160.5t158 -123.5t187.5 -79.5t210.5 -28zM1027 -287q-123 0 -237 32t-213 90t-180.5 139.5t-140 180.5t-90.5 212.5t-32 236.5 q0 121 32 234t90.5 212t140 180t180.5 139t213 90t237 32q122 0 235 -32t211.5 -90t180 -139t139.5 -180t90 -212t32 -234q0 -123 -32 -236.5t-90 -212.5t-139.5 -180.5t-180 -139.5t-211.5 -90t-235 -32z"/>
<glyph glyph-name="ordfeminine" horiz-adv-x="1167" unicode="ª" d="M750 995q-87 0 -159 -6.5t-123 -25t-79.5 -53.5t-28.5 -92q0 -45 15 -74.5t38.5 -47.5t52 -25t55.5 -7t59.5 5.5t64 17t59.5 29.5t46 42v237zM761 684q-36 -49 -78 -79t-84.5 -46t-83 -21t-74.5 -5q-65 0 -115 21.5t-84.5 57t-52.5 82t-18 96.5q0 58 20.5 103.5t55 80 t79 58.5t93.5 39.5t99 22.5t94 7q9 0 27.5 -2t39.5 -4t40.5 -4.5t30.5 -3.5v108q0 47 -13 78.5t-36 51t-55 27.5t-69 8q-42 0 -85 -15t-82.5 -36t-73 -43t-56.5 -36l-42 -1v174q40 13 79.5 26.5t82 24t92 17t109.5 6.5q63 0 122.5 -11.5t105 -43.5t73.5 -88.5t28 -146.5 v-228v-57.5v-57v-57.5v-57q0 -16 7 -29t18 -22t24.5 -14t27.5 -5q9 0 19 2.5t20 6.5t20.5 9t19.5 11h20l-1 -82q-12 -9 -33 -21.5t-45.5 -24.5t-49.5 -20t-44 -8q-82 0 -123 37.5t-42 113.5h-7z"/>
<glyph glyph-name="guillemotleft" horiz-adv-x="1443" unicode="«" d="M715 536v113l388 400h145l-320 -457l320 -458h-145zM237 536v113l388 400h145l-320 -457l320 -458h-145z"/>
<glyph glyph-name="logicalnot" horiz-adv-x="1555" unicode="¬" d="M201 737h1132v-652h-162v498h-970v154z"/>
<glyph glyph-name="registered" horiz-adv-x="2049" unicode="®" d="M898 640q9 -1 24.5 -2.5t32 -2.5t32 -1.5t26.5 -0.5q54 0 93.5 14.5t66 39t39.5 56.5t13 67q0 94 -57.5 136.5t-169.5 42.5h-100v-349zM606 207l113 36q9 3 15 8.5t6 17.5v686q0 10 -6.5 15.5t-14.5 7.5l-113 37v60h419q116 0 188 -21t112.5 -55t54.5 -77t14 -86 q0 -56 -20 -99.5t-51.5 -75.5t-70 -52.5t-75.5 -29.5l243 -301q7 -8 20 -21t27 -17l118 -33v-61h-176q-36 0 -56.5 3.5t-35 13t-27 25.5t-32.5 42l-236 303l-124 25v-289q0 -12 6.5 -18t14.5 -8l114 -36v-61h-427v61zM1027 -189q109 0 209 28t186.5 79.5t157 123.5 t120.5 160.5t77.5 190t27.5 211.5q0 109 -27.5 209.5t-77.5 188t-120.5 159t-157 123t-186.5 79.5t-209 28q-110 0 -210.5 -28t-187.5 -79.5t-158 -123t-121 -159t-77.5 -188t-27.5 -209.5q0 -110 27.5 -211.5t77.5 -190t121 -160.5t158 -123.5t187.5 -79.5t210.5 -28z M1027 -287q-123 0 -237 32t-213 90t-180.5 139.5t-140 180.5t-90.5 212.5t-32 236.5q0 121 32 234t90.5 212t140 180t180.5 139t213 90t237 32q122 0 235 -32t211.5 -90t180 -139t139.5 -180t90 -212t32 -234q0 -123 -32 -236.5t-90 -212.5t-139.5 -180.5t-180 -139.5 t-211.5 -90t-235 -32z"/>
<glyph glyph-name="degree" horiz-adv-x="1070" unicode="°" d="M537 919q38 0 73.5 16t62.5 49t43 83t16 118q0 142 -54.5 212t-144.5 70q-45 0 -81.5 -19t-61.5 -54.5t-38.5 -85.5t-13.5 -112q0 -130 51.5 -203.5t147.5 -73.5zM150 1193q0 87 28 158t79 120.5t121.5 76.5t155.5 27q88 0 159 -27.5t121.5 -78t78 -121t27.5 -155.5 t-27.5 -155.5t-78 -120.5t-121.5 -78t-159 -28t-159 28t-121 78.5t-77 120.5t-27 155z"/>
<glyph glyph-name="plusminus" horiz-adv-x="1555" unicode="±" d="M207 154h492v436h-492v154h492v498h157v-498h492v-154h-492v-436h492v-154h-1141v154z"/>
<glyph glyph-name="uni00B2" horiz-adv-x="922" unicode="²" d="M92 961q109 85 201.5 162.5t159.5 151.5t105 147.5t38 152.5q0 49 -7.5 85.5t-25.5 60t-47.5 35t-72.5 11.5q-44 0 -86 -13.5t-78 -32t-64.5 -37.5l-46.5 -31h-47v156q16 6 44 18t65.5 24t85 20.5t104.5 8.5q74 0 139.5 -20t114.5 -57t77.5 -91t28.5 -121 q0 -85 -40 -158.5t-108 -143t-157 -140t-188 -150.5v-15l89 12h289q16 0 28 7t14 18l22 120h91v-295h-728v115z"/>
<glyph glyph-name="uni00B3" horiz-adv-x="927" unicode="³" d="M94 1043h45q18 -11 49.5 -29.5t70.5 -35.5t82.5 -29.5t84.5 -12.5q58 0 97.5 13t63.5 37t34.5 59t10.5 80q0 42 -9.5 77.5t-33.5 61.5t-65.5 40.5t-105.5 14.5h-95v122h82q101 0 145 44.5t44 136.5q0 34 -6 62t-22 48t-44.5 31t-72.5 11q-41 0 -80 -11.5t-73.5 -27.5 t-62.5 -33t-46 -28h-46v154q16 6 41 15t58.5 17t76.5 14t97 6q69 0 134.5 -14.5t116.5 -43.5t82 -74t31 -106q0 -36 -11 -72.5t-37.5 -69t-71 -59t-110.5 -44.5v-11q40 -5 86.5 -18.5t86.5 -42t66.5 -75t26.5 -116.5q0 -81 -39.5 -139.5t-101 -96.5t-137.5 -56t-148 -18 q-54 0 -100.5 6.5t-84 16t-65.5 19.5t-44 16v161z"/>
<glyph glyph-name="acute" d="M306 1270q43 60 75.5 105.5t58 82t46 65.5t39.5 56q20 28 37.5 45.5t34.5 27.5t35 14t39 4t38.5 -7.5t30.5 -19.5t20 -28t7 -33q0 -20 -4.5 -36t-14.5 -30t-24.5 -27.5t-35.5 -29.5q-24 -20 -51 -40.5t-64.5 -47t-87.5 -62t-119 -84.5z" unicode="´"/>
<glyph glyph-name="paragraph" horiz-adv-x="1411" unicode="¶" d="M667 666h-66q-137 0 -227.5 35.5t-145 91.5t-77 125t-22.5 137q0 42 9.5 88t29.5 90t52 83.5t77 69.5t103.5 47.5t132.5 17.5h757v-81l-161 -58q-16 -6 -26.5 -15.5t-10.5 -29.5v-1603h-113v1686h-199v-1686h-113v1002z"/>
<glyph glyph-name="cedilla" d="M312 -352h28q29 -19 76.5 -36t102.5 -17q61 0 92.5 27t31.5 72q0 28 -10 45t-31 27t-55 13.5t-82 3.5v234h94v-126q43 0 85 -8t75 -27.5t53.5 -52t20.5 -81.5q0 -53 -19 -94.5t-53.5 -70t-83 -43.5t-108.5 -15q-72 0 -123.5 15.5t-93.5 34.5v99z" unicode="¸"/>
<glyph glyph-name="uni00B9" horiz-adv-x="762" unicode="¹" d="M124 927l166 41q12 2 19 10t7 23v582l11 100h-15l-204 -29v83l294 130h89q-2 -24 -3 -51.5t-1.5 -57t-1 -58.5t-0.5 -55v-644q0 -15 6.5 -22t18.5 -11l159 -41v-81h-545v81z"/>
<glyph glyph-name="ordmasculine" horiz-adv-x="1167" unicode="º" d="M592 659q72 0 119 28.5t74.5 75t39 105.5t11.5 119q0 73 -14 141.5t-45 121.5t-80.5 85t-120.5 32t-118 -32t-75 -82t-39.5 -111.5t-11.5 -119.5q0 -66 12.5 -130.5t42.5 -116.5t80 -84t125 -32zM580 529q-99 0 -181 32.5t-140.5 93.5t-90.5 148.5t-32 197.5 q0 101 32 188t90.5 151t142 100.5t187.5 36.5q113 0 196.5 -38.5t138.5 -103.5t82 -150.5t27 -179.5q0 -101 -31.5 -187.5t-90 -151t-142.5 -101t-188 -36.5z"/>
<glyph glyph-name="guillemotright" horiz-adv-x="1443" unicode="»" d="M516 592l-320 457h145l388 -400v-113l-388 -402h-145zM994 592l-320 457h145l388 -400v-113l-388 -402h-145z"/>
<glyph glyph-name="onequarter" horiz-adv-x="1976" unicode="¼" d="M1413 1558h148l-1032 -1659h-149zM1280 300h286v326l14 103h-15l-372 -427v-17zM1072 295l542 633h121v-628h170v-118h-170v-139q0 -14 7.5 -21t18.5 -10l104 -31v-80h-430v80l107 31q11 4 17.5 10.5t6.5 20.5v139h-494v113zM124 629l166 41q12 2 19 10t7 23v582l11 100 h-15l-204 -29v83l294 130h89q-2 -24 -3 -51.5t-1.5 -57t-1 -58.5t-0.5 -55v-644q0 -15 6.5 -22t18.5 -11l159 -41v-81h-545v81z"/>
<glyph glyph-name="onehalf" horiz-adv-x="2115" unicode="½" d="M1413 1558h148l-1032 -1659h-149zM1285 17q109 85 201.5 162.5t159.5 151.5t105 147.5t38 152.5q0 49 -7.5 85.5t-25.5 60t-47.5 35t-72.5 11.5q-44 0 -86 -13.5t-78 -32t-64.5 -37.5l-46.5 -31h-47v156q16 6 44 18t65.5 24t85 20.5t104.5 8.5q74 0 139.5 -20t114.5 -57 t77.5 -91t28.5 -121q0 -85 -40 -158.5t-108 -143t-157 -140t-188 -150.5v-15l89 12h289q16 0 28 7t14 18l22 120h91v-295h-728v115zM124 629l166 41q12 2 19 10t7 23v582l11 100h-15l-204 -29v83l294 130h89q-2 -24 -3 -51.5t-1.5 -57t-1 -58.5t-0.5 -55v-644q0 -15 6.5 -22 t18.5 -11l159 -41v-81h-545v81z"/>
<glyph glyph-name="threequarters" horiz-adv-x="2066" unicode="¾" d="M1370 301h286v326l14 103h-15l-372 -427v-17zM1162 296l542 633h121v-628h170v-118h-170v-139q0 -14 7.5 -21t18.5 -10l104 -31v-80h-430v80l107 31q11 4 17.5 10.5t6.5 20.5v139h-494v113zM1503 1558h148l-1032 -1659h-149zM94 745h45q18 -11 49.5 -29.5t70.5 -35.5 t82.5 -29.5t84.5 -12.5q58 0 97.5 13t63.5 37t34.5 59t10.5 80q0 42 -9.5 77.5t-33.5 61.5t-65.5 40.5t-105.5 14.5h-95v122h82q101 0 145 44.5t44 136.5q0 34 -6 62t-22 48t-44.5 31t-72.5 11q-41 0 -80 -11.5t-73.5 -27.5t-62.5 -33t-46 -28h-46v154q16 6 41 15t58.5 17 t76.5 14t97 6q69 0 134.5 -14.5t116.5 -43.5t82 -74t31 -106q0 -36 -11 -72.5t-37.5 -69t-71 -59t-110.5 -44.5v-11q40 -5 86.5 -18.5t86.5 -42t66.5 -75t26.5 -116.5q0 -81 -39.5 -139.5t-101 -96.5t-137.5 -56t-148 -18q-54 0 -100.5 6.5t-84 16t-65.5 19.5t-44 16v161z "/>
<glyph glyph-name="questiondown" horiz-adv-x="1148" unicode="¿" d="M969 -100v-212q-22 -9 -56 -24.5t-79 -30.5t-99.5 -26t-117.5 -11q-90 0 -174 28t-149.5 81.5t-105 131.5t-39.5 177q0 100 35.5 176t96.5 132t141.5 94.5t170.5 62.5v188h155v-353q-42 -5 -88 -14.5t-91 -25.5t-85 -40t-71 -58t-49 -79t-18 -103q0 -63 12.5 -109 t38.5 -77t67 -46t98 -15q53 0 108 18t104 42.5t89 50.5t63 42h43zM674 799q-33 0 -62.5 12.5t-51.5 34t-34.5 51t-12.5 62.5t12.5 61.5t34.5 49.5t51.5 33t62.5 12t62 -12t50 -33t33.5 -49.5t12.5 -61.5t-12.5 -62.5t-33.5 -51t-50 -34t-62 -12.5z"/>
<glyph glyph-name="Agrave" horiz-adv-x="1515" unicode="À" d="M932 659l-165 403l-36 135h-22l-211 -538h434zM16 83l107 52q17 8 30 23t19 31l410 1042l116 242h136l510 -1289q6 -15 17.5 -31t26.5 -22l112 -48v-83h-543v83l167 66l-138 351h-543l-130 -345l170 -72v-83h-467v83zM903 1573q-69 49 -119 84.5t-87.5 62t-64.5 47 t-51 40.5q-21 16 -35.5 29.5t-24.5 27.5t-14.5 30t-4.5 36q0 17 7 33t20 28t30.5 19.5t38.5 7.5t39 -4t35 -14t34.5 -27.5t37.5 -45.5q19 -27 39.5 -56t46 -65.5t58 -82t75.5 -105.5z"/>
<glyph glyph-name="Aacute" horiz-adv-x="1515" unicode="Á" d="M932 659l-165 403l-36 135h-22l-211 -538h434zM16 83l107 52q17 8 30 23t19 31l410 1042l116 242h136l510 -1289q6 -15 17.5 -31t26.5 -22l112 -48v-83h-543v83l167 66l-138 351h-543l-130 -345l170 -72v-83h-467v83zM551 1618q43 60 75.5 105.5t58 82t46 65.5t39.5 56 q20 28 37.5 45.5t34.5 27.5t35 14t39 4t38.5 -7.5t30.5 -19.5t20 -28t7 -33q0 -20 -4.5 -36t-14.5 -30t-24.5 -27.5t-35.5 -29.5q-24 -20 -51 -40.5t-64.5 -47t-87.5 -62t-119 -84.5z"/>
<glyph glyph-name="Acircumflex" horiz-adv-x="1515" unicode="Â" d="M932 659l-165 403l-36 135h-22l-211 -538h434zM16 83l107 52q17 8 30 23t19 31l410 1042l116 242h136l510 -1289q6 -15 17.5 -31t26.5 -22l112 -48v-83h-543v83l167 66l-138 351h-543l-130 -345l170 -72v-83h-467v83zM628 1925q28 40 56.5 65.5t72.5 25.5t73 -25.5 t57 -64.5l218 -308l-60 -45l-287 250l-288 -250l-60 45z"/>
<glyph glyph-name="Atilde" horiz-adv-x="1515" unicode="Ã" d="M932 659l-165 403l-36 135h-22l-211 -538h434zM16 83l107 52q17 8 30 23t19 31l410 1042l116 242h136l510 -1289q6 -15 17.5 -31t26.5 -22l112 -48v-83h-543v83l167 66l-138 351h-543l-130 -345l170 -72v-83h-467v83zM391 1624q7 55 28.5 104t54 86t73.5 59t88 22 q31 0 72 -12.5t86 -37.5q51 -27 82 -38t49 -11q22 0 39 9t29 24.5t20 36t13 44.5h99q-6 -54 -26.5 -103t-52 -86t-72.5 -59t-88 -22q-16 0 -32 2t-34 8t-40 16t-49 26q-48 27 -81.5 38.5t-52.5 11.5q-44 0 -71 -35t-36 -83h-98z"/>
<glyph glyph-name="Adieresis" horiz-adv-x="1515" unicode="Ä" d="M932 659l-165 403l-36 135h-22l-211 -538h434zM16 83l107 52q17 8 30 23t19 31l410 1042l116 242h136l510 -1289q6 -15 17.5 -31t26.5 -22l112 -48v-83h-543v83l167 66l-138 351h-543l-130 -345l170 -72v-83h-467v83zM523 1637q-26 0 -49.5 8t-41.5 23t-29 37t-11 50 q0 31 11 54t29 38.5t41.5 23.5t49.5 8q30 0 55.5 -7t43.5 -21t28 -35.5t10 -50.5q0 -30 -10.5 -54t-29 -40.5t-43.5 -25t-54 -8.5zM985 1637q-26 0 -49.5 8t-41.5 23t-29 37t-11 50q0 31 11 54t29 38.5t41.5 23.5t49.5 8q30 0 55.5 -7t43.5 -21t28 -35.5t10 -50.5 q0 -30 -10.5 -54t-29 -40.5t-43.5 -25t-54 -8.5z"/>
<glyph glyph-name="Aring" horiz-adv-x="1515" unicode="Å" d="M932 659l-165 403l-36 135h-22l-211 -538h434zM16 83l107 52q17 8 30 23t19 31l410 1042l116 242h136l510 -1289q6 -15 17.5 -31t26.5 -22l112 -48v-83h-543v83l167 66l-138 351h-543l-130 -345l170 -72v-83h-467v83zM767 1619q55 0 87.5 39.5t32.5 112.5q0 39 -10.5 72 t-28.5 57t-43 37t-53 13q-57 0 -91 -39t-34 -115q0 -41 11 -73.5t30 -55.5t44.5 -35.5t54.5 -12.5zM488 1782q0 60 21.5 106.5t59 78.5t88.5 49t110 17q57 0 104.5 -16t81 -47t52.5 -77t19 -105q0 -60 -21.5 -107t-58.5 -79.5t-86.5 -49t-105.5 -16.5q-57 0 -105.5 16 t-84 47t-55 77t-19.5 106z"/>
<glyph glyph-name="AE" horiz-adv-x="2245" unicode="Æ" d="M1085 773v550h-97l-315 -550h412zM0 83l117 52q17 8 33 23t25 31l589 1009q8 14 17 33t10 42q1 17 -9 25.5t-24 13.5l-162 58v81h1438v-366h-137l-30 192q-3 19 -15 28.5t-28 9.5h-520v-543h304q21 0 30 9t13 29l30 156h110v-504h-110l-30 145q-2 20 -12 29.5t-31 9.5 h-304v-510h595q14 0 26.5 10t15.5 29l31 214h136v-389h-1220v83l162 56q15 5 25 15.5t10 32.5v460h-488l-278 -492l167 -72v-83h-486v83z"/>
<glyph glyph-name="Ccedilla" horiz-adv-x="1482" unicode="Ç" d="M581 -352h28q29 -19 76.5 -36t102.5 -17q61 0 92.5 27t31.5 72q0 28 -10 45t-31 27t-55 13.5t-82 3.5v192q-140 16 -253.5 73t-194 151.5t-124.5 226t-44 297.5q0 174 54 314.5t151 239.5t230.5 152.5t291.5 53.5q57 0 125 -7.5t136 -19t130 -24t107 -22.5v-380h-136 l-31 214q-2 14 -18 25.5t-28 17.5q-34 16 -67.5 28t-69 20t-73.5 11.5t-81 3.5q-107 0 -195.5 -35.5t-151.5 -107.5t-98 -181t-35 -256q0 -313 139.5 -473.5t403.5 -160.5q72 0 133.5 22.5t112.5 54t91.5 65.5t69.5 57h61v-148q-44 -36 -102 -74.5t-125.5 -70.5t-144 -52.5 t-157.5 -20.5h-6.5h-6.5v-78q43 0 85 -8t75 -27.5t53.5 -52t20.5 -81.5q0 -53 -19 -94.5t-53.5 -70t-83 -43.5t-108.5 -15q-72 0 -123.5 15.5t-93.5 34.5v99z"/>
<glyph glyph-name="Egrave" horiz-adv-x="1488" unicode="È" d="M131 83l162 56q15 5 25 15.5t10 32.5v1080q0 20 -10.5 30t-24.5 15l-162 58v81h1146v-366h-137l-30 192q-3 19 -15 28.5t-28 9.5h-520v-493h304q21 0 30 9t13 29l30 156h110v-524h-110l-30 155q-4 20 -13 29.5t-30 9.5h-304v-550h595q14 0 26.5 10t15.5 29l31 214h136 v-389h-1220v83zM890 1573q-69 49 -119 84.5t-87.5 62t-64.5 47t-51 40.5q-21 16 -35.5 29.5t-24.5 27.5t-14.5 30t-4.5 36q0 17 7 33t20 28t30.5 19.5t38.5 7.5t39 -4t35 -14t34.5 -27.5t37.5 -45.5q19 -27 39.5 -56t46 -65.5t58 -82t75.5 -105.5z"/>
<glyph glyph-name="Eacute" horiz-adv-x="1488" unicode="É" d="M131 83l162 56q15 5 25 15.5t10 32.5v1080q0 20 -10.5 30t-24.5 15l-162 58v81h1146v-366h-137l-30 192q-3 19 -15 28.5t-28 9.5h-520v-493h304q21 0 30 9t13 29l30 156h110v-524h-110l-30 155q-4 20 -13 29.5t-30 9.5h-304v-550h595q14 0 26.5 10t15.5 29l31 214h136 v-389h-1220v83zM568 1618q43 60 75.5 105.5t58 82t46 65.5t39.5 56q20 28 37.5 45.5t34.5 27.5t35 14t39 4t38.5 -7.5t30.5 -19.5t20 -28t7 -33q0 -20 -4.5 -36t-14.5 -30t-24.5 -27.5t-35.5 -29.5q-24 -20 -51 -40.5t-64.5 -47t-87.5 -62t-119 -84.5z"/>
<glyph glyph-name="Ecircumflex" horiz-adv-x="1488" unicode="Ê" d="M131 83l162 56q15 5 25 15.5t10 32.5v1080q0 20 -10.5 30t-24.5 15l-162 58v81h1146v-366h-137l-30 192q-3 19 -15 28.5t-28 9.5h-520v-493h304q21 0 30 9t13 29l30 156h110v-524h-110l-30 155q-4 20 -13 29.5t-30 9.5h-304v-550h595q14 0 26.5 10t15.5 29l31 214h136 v-389h-1220v83zM615 1925q28 40 56.5 65.5t72.5 25.5t73 -25.5t57 -64.5l218 -308l-60 -45l-287 250l-288 -250l-60 45z"/>
<glyph glyph-name="Edieresis" horiz-adv-x="1488" unicode="Ë" d="M131 83l162 56q15 5 25 15.5t10 32.5v1080q0 20 -10.5 30t-24.5 15l-162 58v81h1146v-366h-137l-30 192q-3 19 -15 28.5t-28 9.5h-520v-493h304q21 0 30 9t13 29l30 156h110v-524h-110l-30 155q-4 20 -13 29.5t-30 9.5h-304v-550h595q14 0 26.5 10t15.5 29l31 214h136 v-389h-1220v83zM510 1637q-26 0 -49.5 8t-41.5 23t-29 37t-11 50q0 31 11 54t29 38.5t41.5 23.5t49.5 8q30 0 55.5 -7t43.5 -21t28 -35.5t10 -50.5q0 -30 -10.5 -54t-29 -40.5t-43.5 -25t-54 -8.5zM972 1637q-26 0 -49.5 8t-41.5 23t-29 37t-11 50q0 31 11 54t29 38.5 t41.5 23.5t49.5 8q30 0 55.5 -7t43.5 -21t28 -35.5t10 -50.5q0 -30 -10.5 -54t-29 -40.5t-43.5 -25t-54 -8.5z"/>
<glyph glyph-name="Igrave" horiz-adv-x="895" unicode="Ì" d="M131 83l172 56q17 6 26 16t9 32v1080q0 20 -10.5 30t-24.5 15l-172 58v81h634v-81l-171 -58q-16 -5 -26.5 -15t-10.5 -30v-1080q0 -22 11 -32.5t26 -15.5l171 -56v-83h-634v83zM595 1573q-69 49 -119 84.5t-87.5 62t-64.5 47t-51 40.5q-21 16 -35.5 29.5t-24.5 27.5 t-14.5 30t-4.5 36q0 17 7 33t20 28t30.5 19.5t38.5 7.5t39 -4t35 -14t34.5 -27.5t37.5 -45.5q19 -27 39.5 -56t46 -65.5t58 -82t75.5 -105.5z"/>
<glyph glyph-name="Iacute" horiz-adv-x="895" unicode="Í" d="M131 83l172 56q17 6 26 16t9 32v1080q0 20 -10.5 30t-24.5 15l-172 58v81h634v-81l-171 -58q-16 -5 -26.5 -15t-10.5 -30v-1080q0 -22 11 -32.5t26 -15.5l171 -56v-83h-634v83zM243 1618q43 60 75.5 105.5t58 82t46 65.5t39.5 56q20 28 37.5 45.5t34.5 27.5t35 14t39 4 t38.5 -7.5t30.5 -19.5t20 -28t7 -33q0 -20 -4.5 -36t-14.5 -30t-24.5 -27.5t-35.5 -29.5q-24 -20 -51 -40.5t-64.5 -47t-87.5 -62t-119 -84.5z"/>
<glyph glyph-name="Icircumflex" horiz-adv-x="895" unicode="Î" d="M131 83l172 56q17 6 26 16t9 32v1080q0 20 -10.5 30t-24.5 15l-172 58v81h634v-81l-171 -58q-16 -5 -26.5 -15t-10.5 -30v-1080q0 -22 11 -32.5t26 -15.5l171 -56v-83h-634v83zM320 1925q28 40 56.5 65.5t72.5 25.5t73 -25.5t57 -64.5l218 -308l-60 -45l-287 250 l-288 -250l-60 45z"/>
<glyph glyph-name="Idieresis" horiz-adv-x="895" unicode="Ï" d="M131 83l172 56q17 6 26 16t9 32v1080q0 20 -10.5 30t-24.5 15l-172 58v81h634v-81l-171 -58q-16 -5 -26.5 -15t-10.5 -30v-1080q0 -22 11 -32.5t26 -15.5l171 -56v-83h-634v83zM215 1637q-26 0 -49.5 8t-41.5 23t-29 37t-11 50q0 31 11 54t29 38.5t41.5 23.5t49.5 8 q30 0 55.5 -7t43.5 -21t28 -35.5t10 -50.5q0 -30 -10.5 -54t-29 -40.5t-43.5 -25t-54 -8.5zM677 1637q-26 0 -49.5 8t-41.5 23t-29 37t-11 50q0 31 11 54t29 38.5t41.5 23.5t49.5 8q30 0 55.5 -7t43.5 -21t28 -35.5t10 -50.5q0 -30 -10.5 -54t-29 -40.5t-43.5 -25t-54 -8.5z "/>
<glyph glyph-name="Eth" horiz-adv-x="1659" unicode="Ð" d="M547 818h337v-128h-337v-556h263q127 0 219.5 37t152.5 108t88.5 174.5t28.5 235.5q0 145 -39 261.5t-111 198t-174 125t-228 43.5h-200v-499zM328 690h-197v128h197v449q0 20 -10.5 30t-24.5 15l-162 58v81h681q73 0 155 -13.5t163.5 -46.5t156 -87t131 -135.5 t90.5 -192.5t34 -257q0 -186 -57.5 -321.5t-157 -224t-233 -131t-286.5 -42.5h-677v83l162 56q14 5 24.5 15.5t10.5 32.5v503z"/>
<glyph glyph-name="Ntilde" horiz-adv-x="1810" unicode="Ñ" d="M131 83l162 64q15 6 25 15t10 31v1074q0 20 -10.5 30t-24.5 15l-167 58v81h433l704 -1001l72 -126h21v938q0 20 -11.5 28.5t-25.5 14.5l-160 65v81h542v-81l-161 -65q-12 -5 -24 -14t-12 -29v-1042l-31 -230h-138l-766 1085l-69 125h-21v-1007q0 -22 11.5 -31.5 t23.5 -14.5l159 -64v-83h-542v83zM568 1624q7 55 28.5 104t54 86t73.5 59t88 22q31 0 72 -12.5t86 -37.5q51 -27 82 -38t49 -11q22 0 39 9t29 24.5t20 36t13 44.5h99q-6 -54 -26.5 -103t-52 -86t-72.5 -59t-88 -22q-16 0 -32 2t-34 8t-40 16t-49 26q-48 27 -81.5 38.5 t-52.5 11.5q-44 0 -71 -35t-36 -83h-98z"/>
<glyph glyph-name="Ograve" horiz-adv-x="1655" unicode="Ò" d="M845 98q112 0 196.5 43t141 121t85 187.5t28.5 243.5q0 153 -30 275.5t-90.5 208t-152 131t-215.5 45.5q-119 0 -204 -46t-139.5 -126t-80 -187.5t-25.5 -229.5q0 -152 29.5 -275t89.5 -210t151.5 -134t215.5 -47zM827 -33q-171 0 -303 52t-222.5 150.5t-137 239.5 t-46.5 319q0 167 48.5 306t140 239.5t223.5 156t299 55.5q181 0 314.5 -57t221 -158t130 -240t42.5 -302q0 -97 -18 -191.5t-55 -179t-94.5 -156t-136.5 -123.5t-180 -81.5t-226 -29.5zM973 1573q-69 49 -119 84.5t-87.5 62t-64.5 47t-51 40.5q-21 16 -35.5 29.5t-24.5 27.5 t-14.5 30t-4.5 36q0 17 7 33t20 28t30.5 19.5t38.5 7.5t39 -4t35 -14t34.5 -27.5t37.5 -45.5q19 -27 39.5 -56t46 -65.5t58 -82t75.5 -105.5z"/>
<glyph glyph-name="Oacute" horiz-adv-x="1655" unicode="Ó" d="M845 98q112 0 196.5 43t141 121t85 187.5t28.5 243.5q0 153 -30 275.5t-90.5 208t-152 131t-215.5 45.5q-119 0 -204 -46t-139.5 -126t-80 -187.5t-25.5 -229.5q0 -152 29.5 -275t89.5 -210t151.5 -134t215.5 -47zM827 -33q-171 0 -303 52t-222.5 150.5t-137 239.5 t-46.5 319q0 167 48.5 306t140 239.5t223.5 156t299 55.5q181 0 314.5 -57t221 -158t130 -240t42.5 -302q0 -97 -18 -191.5t-55 -179t-94.5 -156t-136.5 -123.5t-180 -81.5t-226 -29.5zM621 1618q43 60 75.5 105.5t58 82t46 65.5t39.5 56q20 28 37.5 45.5t34.5 27.5t35 14 t39 4t38.5 -7.5t30.5 -19.5t20 -28t7 -33q0 -20 -4.5 -36t-14.5 -30t-24.5 -27.5t-35.5 -29.5q-24 -20 -51 -40.5t-64.5 -47t-87.5 -62t-119 -84.5z"/>
<glyph glyph-name="Ocircumflex" horiz-adv-x="1655" unicode="Ô" d="M845 98q112 0 196.5 43t141 121t85 187.5t28.5 243.5q0 153 -30 275.5t-90.5 208t-152 131t-215.5 45.5q-119 0 -204 -46t-139.5 -126t-80 -187.5t-25.5 -229.5q0 -152 29.5 -275t89.5 -210t151.5 -134t215.5 -47zM827 -33q-171 0 -303 52t-222.5 150.5t-137 239.5 t-46.5 319q0 167 48.5 306t140 239.5t223.5 156t299 55.5q181 0 314.5 -57t221 -158t130 -240t42.5 -302q0 -97 -18 -191.5t-55 -179t-94.5 -156t-136.5 -123.5t-180 -81.5t-226 -29.5zM698 1925q28 40 56.5 65.5t72.5 25.5t73 -25.5t57 -64.5l218 -308l-60 -45l-287 250 l-288 -250l-60 45z"/>
<glyph glyph-name="Otilde" horiz-adv-x="1655" unicode="Õ" d="M845 98q112 0 196.5 43t141 121t85 187.5t28.5 243.5q0 153 -30 275.5t-90.5 208t-152 131t-215.5 45.5q-119 0 -204 -46t-139.5 -126t-80 -187.5t-25.5 -229.5q0 -152 29.5 -275t89.5 -210t151.5 -134t215.5 -47zM827 -33q-171 0 -303 52t-222.5 150.5t-137 239.5 t-46.5 319q0 167 48.5 306t140 239.5t223.5 156t299 55.5q181 0 314.5 -57t221 -158t130 -240t42.5 -302q0 -97 -18 -191.5t-55 -179t-94.5 -156t-136.5 -123.5t-180 -81.5t-226 -29.5zM461 1624q7 55 28.5 104t54 86t73.5 59t88 22q31 0 72 -12.5t86 -37.5q51 -27 82 -38 t49 -11q22 0 39 9t29 24.5t20 36t13 44.5h99q-6 -54 -26.5 -103t-52 -86t-72.5 -59t-88 -22q-16 0 -32 2t-34 8t-40 16t-49 26q-48 27 -81.5 38.5t-52.5 11.5q-44 0 -71 -35t-36 -83h-98z"/>
<glyph glyph-name="Odieresis" horiz-adv-x="1655" unicode="Ö" d="M845 98q112 0 196.5 43t141 121t85 187.5t28.5 243.5q0 153 -30 275.5t-90.5 208t-152 131t-215.5 45.5q-119 0 -204 -46t-139.5 -126t-80 -187.5t-25.5 -229.5q0 -152 29.5 -275t89.5 -210t151.5 -134t215.5 -47zM827 -33q-171 0 -303 52t-222.5 150.5t-137 239.5 t-46.5 319q0 167 48.5 306t140 239.5t223.5 156t299 55.5q181 0 314.5 -57t221 -158t130 -240t42.5 -302q0 -97 -18 -191.5t-55 -179t-94.5 -156t-136.5 -123.5t-180 -81.5t-226 -29.5zM593 1637q-26 0 -49.5 8t-41.5 23t-29 37t-11 50q0 31 11 54t29 38.5t41.5 23.5t49.5 8 q30 0 55.5 -7t43.5 -21t28 -35.5t10 -50.5q0 -30 -10.5 -54t-29 -40.5t-43.5 -25t-54 -8.5zM1055 1637q-26 0 -49.5 8t-41.5 23t-29 37t-11 50q0 31 11 54t29 38.5t41.5 23.5t49.5 8q30 0 55.5 -7t43.5 -21t28 -35.5t10 -50.5q0 -30 -10.5 -54t-29 -40.5t-43.5 -25t-54 -8.5 z"/>
<glyph glyph-name="multiply" horiz-adv-x="1555" unicode="×" d="M268 227l403 400l-403 400l109 110l401 -403l399 402l109 -109l-403 -400l402 -400l-109 -109l-399 402l-400 -403z"/>
<glyph glyph-name="Oslash" horiz-adv-x="1655" unicode="Ø" d="M552 191q57 -45 128.5 -69t164.5 -24q112 0 197.5 43t143 121t86.5 187.5t29 243.5q0 162 -31 288.5t-97 214.5zM1103 1261q-57 45 -129.5 68.5t-165.5 23.5q-79 0 -143.5 -21t-115 -59.5t-87 -92t-61 -119t-36 -141t-11.5 -156.5q0 -161 31 -290.5t97 -217.5zM383 103 q-129 97 -197 255t-68 370q0 167 48.5 306t140 239.5t223.5 156t299 55.5q108 0 197.5 -21.5t164.5 -61.5l82 132h114l-115 -185q66 -50 115.5 -116t83 -145.5t50 -170t16.5 -189.5q0 -97 -18 -191.5t-55 -179t-94.5 -156t-136.5 -123.5t-180 -81.5t-226 -29.5 q-106 0 -196 20.5t-166 62.5l-103 -164h-114z"/>
<glyph glyph-name="Ugrave" horiz-adv-x="1731" unicode="Ù" d="M299 1267q0 20 -10.5 29.5t-27.5 15.5l-159 58v81h613v-81l-161 -58q-14 -5 -24.5 -15t-10.5 -30v-758q0 -37 5.5 -80.5t20 -86t40.5 -82t67 -70t99 -48.5t137 -18q78 0 137.5 18.5t103.5 49t73.5 70.5t47 82.5t25 84.5t7.5 77v756q0 20 -10.5 29t-24.5 14l-160 65v81 h541v-81l-161 -65q-14 -6 -24.5 -14.5t-10.5 -28.5v-825q0 -85 -26.5 -153t-71 -120.5t-102.5 -90t-121 -61.5t-126.5 -35.5t-119.5 -11.5q-141 0 -247 36t-177 96t-106.5 137t-35.5 159v874zM1001 1573q-69 49 -119 84.5t-87.5 62t-64.5 47t-51 40.5q-21 16 -35.5 29.5 t-24.5 27.5t-14.5 30t-4.5 36q0 17 7 33t20 28t30.5 19.5t38.5 7.5t39 -4t35 -14t34.5 -27.5t37.5 -45.5q19 -27 39.5 -56t46 -65.5t58 -82t75.5 -105.5z"/>
<glyph glyph-name="Uacute" horiz-adv-x="1731" unicode="Ú" d="M299 1267q0 20 -10.5 29.5t-27.5 15.5l-159 58v81h613v-81l-161 -58q-14 -5 -24.5 -15t-10.5 -30v-758q0 -37 5.5 -80.5t20 -86t40.5 -82t67 -70t99 -48.5t137 -18q78 0 137.5 18.5t103.5 49t73.5 70.5t47 82.5t25 84.5t7.5 77v756q0 20 -10.5 29t-24.5 14l-160 65v81 h541v-81l-161 -65q-14 -6 -24.5 -14.5t-10.5 -28.5v-825q0 -85 -26.5 -153t-71 -120.5t-102.5 -90t-121 -61.5t-126.5 -35.5t-119.5 -11.5q-141 0 -247 36t-177 96t-106.5 137t-35.5 159v874zM669 1618q43 60 75.5 105.5t58 82t46 65.5t39.5 56q20 28 37.5 45.5t34.5 27.5 t35 14t39 4t38.5 -7.5t30.5 -19.5t20 -28t7 -33q0 -20 -4.5 -36t-14.5 -30t-24.5 -27.5t-35.5 -29.5q-24 -20 -51 -40.5t-64.5 -47t-87.5 -62t-119 -84.5z"/>
<glyph glyph-name="Ucircumflex" horiz-adv-x="1731" unicode="Û" d="M299 1267q0 20 -10.5 29.5t-27.5 15.5l-159 58v81h613v-81l-161 -58q-14 -5 -24.5 -15t-10.5 -30v-758q0 -37 5.5 -80.5t20 -86t40.5 -82t67 -70t99 -48.5t137 -18q78 0 137.5 18.5t103.5 49t73.5 70.5t47 82.5t25 84.5t7.5 77v756q0 20 -10.5 29t-24.5 14l-160 65v81 h541v-81l-161 -65q-14 -6 -24.5 -14.5t-10.5 -28.5v-825q0 -85 -26.5 -153t-71 -120.5t-102.5 -90t-121 -61.5t-126.5 -35.5t-119.5 -11.5q-141 0 -247 36t-177 96t-106.5 137t-35.5 159v874zM736 1925q28 40 56.5 65.5t72.5 25.5t73 -25.5t57 -64.5l218 -308l-60 -45 l-287 250l-288 -250l-60 45z"/>
<glyph glyph-name="Udieresis" horiz-adv-x="1731" unicode="Ü" d="M299 1267q0 20 -10.5 29.5t-27.5 15.5l-159 58v81h613v-81l-161 -58q-14 -5 -24.5 -15t-10.5 -30v-758q0 -37 5.5 -80.5t20 -86t40.5 -82t67 -70t99 -48.5t137 -18q78 0 137.5 18.5t103.5 49t73.5 70.5t47 82.5t25 84.5t7.5 77v756q0 20 -10.5 29t-24.5 14l-160 65v81 h541v-81l-161 -65q-14 -6 -24.5 -14.5t-10.5 -28.5v-825q0 -85 -26.5 -153t-71 -120.5t-102.5 -90t-121 -61.5t-126.5 -35.5t-119.5 -11.5q-141 0 -247 36t-177 96t-106.5 137t-35.5 159v874zM631 1637q-26 0 -49.5 8t-41.5 23t-29 37t-11 50q0 31 11 54t29 38.5t41.5 23.5 t49.5 8q30 0 55.5 -7t43.5 -21t28 -35.5t10 -50.5q0 -30 -10.5 -54t-29 -40.5t-43.5 -25t-54 -8.5zM1093 1637q-26 0 -49.5 8t-41.5 23t-29 37t-11 50q0 31 11 54t29 38.5t41.5 23.5t49.5 8q30 0 55.5 -7t43.5 -21t28 -35.5t10 -50.5q0 -30 -10.5 -54t-29 -40.5t-43.5 -25 t-54 -8.5z"/>
<glyph glyph-name="Yacute" horiz-adv-x="1458" unicode="Ý" d="M411 83l169 56q17 5 27 15.5t10 32.5v345l-415 738q-8 14 -19.5 28.5t-27.5 21.5l-116 50v81h541v-81l-162 -67l285 -487l52 -123h21l335 604l-163 73v81h470v-81l-113 -54q-14 -7 -27 -21.5t-21 -28.5l-420 -729v-350q0 -22 9.5 -32.5t24.5 -15.5l171 -56v-83h-631v83z M548 1618q43 60 75.5 105.5t58 82t46 65.5t39.5 56q20 28 37.5 45.5t34.5 27.5t35 14t39 4t38.5 -7.5t30.5 -19.5t20 -28t7 -33q0 -20 -4.5 -36t-14.5 -30t-24.5 -27.5t-35.5 -29.5q-24 -20 -51 -40.5t-64.5 -47t-87.5 -62t-119 -84.5z"/>
<glyph glyph-name="Thorn" horiz-adv-x="1373" unicode="Þ" d="M547 459q18 -5 42.5 -8.5t51.5 -5.5t55 -3t52 -1q64 0 110 16t78 41.5t51.5 57.5t30 64t14 60.5t3.5 47.5q0 61 -15.5 117.5t-55 99.5t-107.5 68.5t-173 25.5h-137v-580zM131 83l162 56q14 5 24.5 15.5t10.5 32.5v1080q0 20 -10 30t-25 15l-162 58v81h613v-83l-164 -56 q-14 -5 -24.5 -15.5t-10.5 -32.5v-91h186q113 0 211.5 -22.5t172 -70.5t115.5 -123.5t42 -180.5q0 -111 -36.5 -199.5t-102 -150.5t-156 -95t-198.5 -33q-25 0 -56 5.5t-62.5 15t-62 22t-53.5 26.5v-180q0 -22 11 -32.5t26 -15.5l171 -56v-83h-622v83z"/>
<glyph glyph-name="germandbls" horiz-adv-x="1500" unicode="ß" d="M89 82l124 44q19 7 29 16.5t10 29.5v854q0 96 23.5 174.5t65 139.5t98 105.5t121.5 73t135.5 42.5t141.5 14q74 0 145.5 -24.5t127.5 -66.5t90 -98t34 -119q0 -67 -8 -111t-16 -77q-17 -8 -39 -17t-46 -19.5t-47.5 -22t-42.5 -23.5q-51 -32 -86 -66t-35 -74 q0 -30 10.5 -52t27.5 -39.5t40 -32.5t47 -31q29 -19 81 -47.5t109 -61.5q45 -26 78 -53t54.5 -58t32.5 -67.5t11 -81.5q0 -81 -37.5 -147t-97.5 -113t-136 -72.5t-153 -25.5q-50 0 -94.5 6.5t-85.5 17t-78 23.5t-71 26v252h134l24 -90q5 -20 12 -32.5t16 -19.5 q16 -12 34.5 -21t39 -15.5t42 -10t42.5 -3.5q33 0 69 9.5t66.5 29.5t50.5 49.5t20 70.5q0 40 -8.5 67t-28 48.5t-52 42.5t-79.5 48q-45 26 -94 48.5t-87 44.5q-26 15 -52.5 35.5t-48 47.5t-35.5 61t-14 75q0 52 19 94.5t48 75.5t62.5 58t62.5 43q19 11 40 23.5t40.5 25.5 t37 27.5t29.5 30.5q0 79 -26.5 129.5t-72 78.5t-106 38.5t-127.5 10.5q-27 0 -54 -6t-50.5 -14.5t-40 -18t-22.5 -16.5q-14 -17 -28.5 -52t-26.5 -86t-19.5 -116.5t-7.5 -141.5v-969h-372v82z"/>
<glyph glyph-name="agrave" horiz-adv-x="1290" unicode="à" d="M839 550q-109 0 -199 -8t-154 -31.5t-99.5 -67t-35.5 -115.5q0 -57 19 -95t48 -60t65 -31t70 -9t74.5 7t80 21.5t74 36.5t57.5 53v299zM845 167q-44 -61 -95.5 -98t-103.5 -57t-101.5 -26.5t-89.5 -6.5q-78 0 -138.5 26.5t-102 70t-63.5 100t-22 117.5q0 71 25 126.5 t66.5 97.5t96 71.5t114 48t120 27t113.5 8.5q11 0 36 -2t52.5 -5t51.5 -6t35 -4v138q0 59 -16.5 99t-45.5 64.5t-69 35t-87 10.5q-51 0 -104 -18.5t-101.5 -44t-90 -53.5t-69.5 -46h-45v207q48 16 95 32t99.5 29t112 21t133.5 8q76 0 148 -14.5t127.5 -53.5t89 -108 t33.5 -178v-565q0 -20 9 -36.5t23 -28.5t32 -18.5t35 -6.5q12 0 24 3t25 8t25.5 11.5t24.5 12.5h18v-95q-15 -11 -40 -26t-54.5 -29t-59 -24t-53.5 -10q-49 0 -86 12t-61.5 35.5t-37 58.5t-12.5 82h-16zM774 1225q-69 49 -119 84.5t-87.5 62t-64.5 47t-51 40.5 q-21 16 -35.5 29.5t-24.5 27.5t-14.5 30t-4.5 36q0 17 7 33t20 28t30.5 19.5t38.5 7.5t39 -4t35 -14t34.5 -27.5t37.5 -45.5q19 -27 39.5 -56t46 -65.5t58 -82t75.5 -105.5z"/>
<glyph glyph-name="aacute" horiz-adv-x="1290" unicode="á" d="M839 550q-109 0 -199 -8t-154 -31.5t-99.5 -67t-35.5 -115.5q0 -57 19 -95t48 -60t65 -31t70 -9t74.5 7t80 21.5t74 36.5t57.5 53v299zM845 167q-44 -61 -95.5 -98t-103.5 -57t-101.5 -26.5t-89.5 -6.5q-78 0 -138.5 26.5t-102 70t-63.5 100t-22 117.5q0 71 25 126.5 t66.5 97.5t96 71.5t114 48t120 27t113.5 8.5q11 0 36 -2t52.5 -5t51.5 -6t35 -4v138q0 59 -16.5 99t-45.5 64.5t-69 35t-87 10.5q-51 0 -104 -18.5t-101.5 -44t-90 -53.5t-69.5 -46h-45v207q48 16 95 32t99.5 29t112 21t133.5 8q76 0 148 -14.5t127.5 -53.5t89 -108 t33.5 -178v-565q0 -20 9 -36.5t23 -28.5t32 -18.5t35 -6.5q12 0 24 3t25 8t25.5 11.5t24.5 12.5h18v-95q-15 -11 -40 -26t-54.5 -29t-59 -24t-53.5 -10q-49 0 -86 12t-61.5 35.5t-37 58.5t-12.5 82h-16zM439 1270q43 60 75.5 105.5t58 82t46 65.5t39.5 56q20 28 37.5 45.5 t34.5 27.5t35 14t39 4t38.5 -7.5t30.5 -19.5t20 -28t7 -33q0 -20 -4.5 -36t-14.5 -30t-24.5 -27.5t-35.5 -29.5q-24 -20 -51 -40.5t-64.5 -47t-87.5 -62t-119 -84.5z"/>
<glyph glyph-name="acircumflex" horiz-adv-x="1290" unicode="â" d="M839 550q-109 0 -199 -8t-154 -31.5t-99.5 -67t-35.5 -115.5q0 -57 19 -95t48 -60t65 -31t70 -9t74.5 7t80 21.5t74 36.5t57.5 53v299zM845 167q-44 -61 -95.5 -98t-103.5 -57t-101.5 -26.5t-89.5 -6.5q-78 0 -138.5 26.5t-102 70t-63.5 100t-22 117.5q0 71 25 126.5 t66.5 97.5t96 71.5t114 48t120 27t113.5 8.5q11 0 36 -2t52.5 -5t51.5 -6t35 -4v138q0 59 -16.5 99t-45.5 64.5t-69 35t-87 10.5q-51 0 -104 -18.5t-101.5 -44t-90 -53.5t-69.5 -46h-45v207q48 16 95 32t99.5 29t112 21t133.5 8q76 0 148 -14.5t127.5 -53.5t89 -108 t33.5 -178v-565q0 -20 9 -36.5t23 -28.5t32 -18.5t35 -6.5q12 0 24 3t25 8t25.5 11.5t24.5 12.5h18v-95q-15 -11 -40 -26t-54.5 -29t-59 -24t-53.5 -10q-49 0 -86 12t-61.5 35.5t-37 58.5t-12.5 82h-16zM498 1577q28 40 56.5 65.5t72.5 25.5t73 -25.5t57 -64.5l218 -308 l-60 -45l-287 250l-288 -250l-60 45z"/>
<glyph glyph-name="atilde" horiz-adv-x="1290" unicode="ã" d="M839 550q-109 0 -199 -8t-154 -31.5t-99.5 -67t-35.5 -115.5q0 -57 19 -95t48 -60t65 -31t70 -9t74.5 7t80 21.5t74 36.5t57.5 53v299zM845 167q-44 -61 -95.5 -98t-103.5 -57t-101.5 -26.5t-89.5 -6.5q-78 0 -138.5 26.5t-102 70t-63.5 100t-22 117.5q0 71 25 126.5 t66.5 97.5t96 71.5t114 48t120 27t113.5 8.5q11 0 36 -2t52.5 -5t51.5 -6t35 -4v138q0 59 -16.5 99t-45.5 64.5t-69 35t-87 10.5q-51 0 -104 -18.5t-101.5 -44t-90 -53.5t-69.5 -46h-45v207q48 16 95 32t99.5 29t112 21t133.5 8q76 0 148 -14.5t127.5 -53.5t89 -108 t33.5 -178v-565q0 -20 9 -36.5t23 -28.5t32 -18.5t35 -6.5q12 0 24 3t25 8t25.5 11.5t24.5 12.5h18v-95q-15 -11 -40 -26t-54.5 -29t-59 -24t-53.5 -10q-49 0 -86 12t-61.5 35.5t-37 58.5t-12.5 82h-16zM255 1276q7 55 28.5 104t54 86t73.5 59t88 22q31 0 72 -12.5t86 -37.5 q51 -27 82 -38t49 -11q22 0 39 9t29 24.5t20 36t13 44.5h99q-6 -54 -26.5 -103t-52 -86t-72.5 -59t-88 -22q-16 0 -32 2t-34 8t-40 16t-49 26q-48 27 -81.5 38.5t-52.5 11.5q-44 0 -71 -35t-36 -83h-98z"/>
<glyph glyph-name="adieresis" horiz-adv-x="1290" unicode="ä" d="M839 550q-109 0 -199 -8t-154 -31.5t-99.5 -67t-35.5 -115.5q0 -57 19 -95t48 -60t65 -31t70 -9t74.5 7t80 21.5t74 36.5t57.5 53v299zM845 167q-44 -61 -95.5 -98t-103.5 -57t-101.5 -26.5t-89.5 -6.5q-78 0 -138.5 26.5t-102 70t-63.5 100t-22 117.5q0 71 25 126.5 t66.5 97.5t96 71.5t114 48t120 27t113.5 8.5q11 0 36 -2t52.5 -5t51.5 -6t35 -4v138q0 59 -16.5 99t-45.5 64.5t-69 35t-87 10.5q-51 0 -104 -18.5t-101.5 -44t-90 -53.5t-69.5 -46h-45v207q48 16 95 32t99.5 29t112 21t133.5 8q76 0 148 -14.5t127.5 -53.5t89 -108 t33.5 -178v-565q0 -20 9 -36.5t23 -28.5t32 -18.5t35 -6.5q12 0 24 3t25 8t25.5 11.5t24.5 12.5h18v-95q-15 -11 -40 -26t-54.5 -29t-59 -24t-53.5 -10q-49 0 -86 12t-61.5 35.5t-37 58.5t-12.5 82h-16zM395 1289q-26 0 -49.5 8t-41.5 23t-29 37t-11 50q0 31 11 54t29 38.5 t41.5 23.5t49.5 8q30 0 55.5 -7t43.5 -21t28 -35.5t10 -50.5q0 -30 -10.5 -54t-29 -40.5t-43.5 -25t-54 -8.5zM857 1289q-26 0 -49.5 8t-41.5 23t-29 37t-11 50q0 31 11 54t29 38.5t41.5 23.5t49.5 8q30 0 55.5 -7t43.5 -21t28 -35.5t10 -50.5q0 -30 -10.5 -54t-29 -40.5 t-43.5 -25t-54 -8.5z"/>
<glyph glyph-name="aring" horiz-adv-x="1290" unicode="å" d="M839 550q-109 0 -199 -8t-154 -31.5t-99.5 -67t-35.5 -115.5q0 -57 19 -95t48 -60t65 -31t70 -9t74.5 7t80 21.5t74 36.5t57.5 53v299zM845 167q-44 -61 -95.5 -98t-103.5 -57t-101.5 -26.5t-89.5 -6.5q-78 0 -138.5 26.5t-102 70t-63.5 100t-22 117.5q0 71 25 126.5 t66.5 97.5t96 71.5t114 48t120 27t113.5 8.5q11 0 36 -2t52.5 -5t51.5 -6t35 -4v138q0 59 -16.5 99t-45.5 64.5t-69 35t-87 10.5q-51 0 -104 -18.5t-101.5 -44t-90 -53.5t-69.5 -46h-45v207q48 16 95 32t99.5 29t112 21t133.5 8q76 0 148 -14.5t127.5 -53.5t89 -108 t33.5 -178v-565q0 -20 9 -36.5t23 -28.5t32 -18.5t35 -6.5q12 0 24 3t25 8t25.5 11.5t24.5 12.5h18v-95q-15 -11 -40 -26t-54.5 -29t-59 -24t-53.5 -10q-49 0 -86 12t-61.5 35.5t-37 58.5t-12.5 82h-16zM639 1311q55 0 87.5 39.5t32.5 112.5q0 39 -10.5 72t-28.5 57t-43 37 t-53 13q-57 0 -91 -39t-34 -115q0 -41 11 -73.5t30 -55.5t44.5 -35.5t54.5 -12.5zM360 1474q0 60 21.5 106.5t59 78.5t88.5 49t110 17q57 0 104.5 -16t81 -47t52.5 -77t19 -105q0 -60 -21.5 -107t-58.5 -79.5t-86.5 -49t-105.5 -16.5q-57 0 -105.5 16t-84 47t-55 77 t-19.5 106z"/>
<glyph glyph-name="ae" horiz-adv-x="1945" unicode="æ" d="M839 550q-109 0 -199 -8t-154 -31.5t-99.5 -67t-35.5 -115.5q0 -57 19 -95t48 -60t65 -31t70 -9t74.5 7t80 21.5t74 36.5t57.5 53v299zM1595 694q0 76 -14 135.5t-44.5 100.5t-80 62.5t-121.5 21.5q-62 0 -114 -21t-92 -62t-64.5 -100.5t-30.5 -136.5h561zM891 199 q-44 -72 -102.5 -115.5t-119 -66.5t-117.5 -30.5t-97 -7.5q-78 0 -138.5 26.5t-102 70t-63.5 100t-22 117.5q0 71 25 126.5t66.5 97.5t96 71.5t114 48t120 27t113.5 8.5q11 0 36 -2t52.5 -5t51.5 -6t35 -4v138q0 59 -16.5 99t-45.5 64.5t-69 35t-87 10.5q-51 0 -104 -18.5 t-101.5 -44t-90 -53.5t-69.5 -46h-45v207q48 16 95 32t99.5 29t112 21t133.5 8q51 0 101 -7t94.5 -23.5t82 -44t64.5 -68.5q70 66 159 104.5t195 38.5q112 0 199.5 -35t148 -95t92.5 -140.5t32 -170.5q0 -10 -0.5 -25.5t-1.5 -32.5t-3 -33t-5 -27h-781q0 -220 103 -329.5 t289 -109.5q58 0 111.5 14t100 35t85 45t65.5 44h34v-128q-40 -31 -91.5 -61.5t-112 -55t-128 -40t-137.5 -15.5q-141 0 -254 55.5t-185 167.5z"/>
<glyph glyph-name="ccedilla" horiz-adv-x="1146" unicode="ç" d="M426 -352h28q29 -19 76.5 -36t102.5 -17q61 0 92.5 27t31.5 72q0 28 -10 45t-31 27t-55 13.5t-82 3.5v197q-107 9 -192.5 54t-145.5 118.5t-92 173t-32 217.5q0 89 24 167.5t66 144t99 118t122.5 88.5t136.5 55t142 19q59 0 109 -9.5t90.5 -23t70.5 -27.5t50 -23v-216 h-51q-41 23 -80 49t-82.5 48t-94 36.5t-114.5 14.5q-18 0 -41 -4.5t-46.5 -13t-44.5 -21t-35 -28.5q-18 -19 -35 -43.5t-30.5 -63t-21.5 -95.5t-8 -140q0 -103 23 -184t67.5 -137t110.5 -85.5t153 -29.5q54 0 102.5 15t91 36.5t78.5 47t65 46.5h36v-127q-37 -29 -79.5 -59 t-91.5 -55.5t-105.5 -43t-120.5 -21.5v-87q43 0 85 -8t75 -27.5t53.5 -52t20.5 -81.5q0 -53 -19 -94.5t-53.5 -70t-83 -43.5t-108.5 -15q-72 0 -123.5 15.5t-93.5 34.5v99z"/>
<glyph glyph-name="egrave" horiz-adv-x="1249" unicode="è" d="M900 694q0 76 -14 135.5t-45.5 100.5t-81.5 62.5t-122 21.5q-62 0 -114.5 -21t-92.5 -62t-65 -100.5t-31 -136.5h566zM1121 277v-128q-40 -31 -92 -61.5t-113 -55t-129 -40t-138 -15.5q-113 0 -211.5 37t-171 109.5t-114.5 179t-42 244.5q0 126 40 234t111.5 187 t170.5 124t217 45q112 0 200 -35t149 -95t93.5 -140.5t32.5 -170.5q0 -10 -0.5 -25.5t-1.5 -32.5t-3 -33t-5 -27h-786q0 -220 104 -329.5t290 -109.5q58 0 112 14t101 35t86 45t66 44h34zM780 1225q-69 49 -119 84.5t-87.5 62t-64.5 47t-51 40.5q-21 16 -35.5 29.5 t-24.5 27.5t-14.5 30t-4.5 36q0 17 7 33t20 28t30.5 19.5t38.5 7.5t39 -4t35 -14t34.5 -27.5t37.5 -45.5q19 -27 39.5 -56t46 -65.5t58 -82t75.5 -105.5z"/>
<glyph glyph-name="eacute" horiz-adv-x="1249" unicode="é" d="M900 694q0 76 -14 135.5t-45.5 100.5t-81.5 62.5t-122 21.5q-62 0 -114.5 -21t-92.5 -62t-65 -100.5t-31 -136.5h566zM1121 277v-128q-40 -31 -92 -61.5t-113 -55t-129 -40t-138 -15.5q-113 0 -211.5 37t-171 109.5t-114.5 179t-42 244.5q0 126 40 234t111.5 187 t170.5 124t217 45q112 0 200 -35t149 -95t93.5 -140.5t32.5 -170.5q0 -10 -0.5 -25.5t-1.5 -32.5t-3 -33t-5 -27h-786q0 -220 104 -329.5t290 -109.5q58 0 112 14t101 35t86 45t66 44h34zM418 1270q43 60 75.5 105.5t58 82t46 65.5t39.5 56q20 28 37.5 45.5t34.5 27.5t35 14 t39 4t38.5 -7.5t30.5 -19.5t20 -28t7 -33q0 -20 -4.5 -36t-14.5 -30t-24.5 -27.5t-35.5 -29.5q-24 -20 -51 -40.5t-64.5 -47t-87.5 -62t-119 -84.5z"/>
<glyph glyph-name="ecircumflex" horiz-adv-x="1249" unicode="ê" d="M900 694q0 76 -14 135.5t-45.5 100.5t-81.5 62.5t-122 21.5q-62 0 -114.5 -21t-92.5 -62t-65 -100.5t-31 -136.5h566zM1121 277v-128q-40 -31 -92 -61.5t-113 -55t-129 -40t-138 -15.5q-113 0 -211.5 37t-171 109.5t-114.5 179t-42 244.5q0 126 40 234t111.5 187 t170.5 124t217 45q112 0 200 -35t149 -95t93.5 -140.5t32.5 -170.5q0 -10 -0.5 -25.5t-1.5 -32.5t-3 -33t-5 -27h-786q0 -220 104 -329.5t290 -109.5q58 0 112 14t101 35t86 45t66 44h34zM505 1577q28 40 56.5 65.5t72.5 25.5t73 -25.5t57 -64.5l218 -308l-60 -45l-287 250 l-288 -250l-60 45z"/>
<glyph glyph-name="edieresis" horiz-adv-x="1249" unicode="ë" d="M900 694q0 76 -14 135.5t-45.5 100.5t-81.5 62.5t-122 21.5q-62 0 -114.5 -21t-92.5 -62t-65 -100.5t-31 -136.5h566zM1121 277v-128q-40 -31 -92 -61.5t-113 -55t-129 -40t-138 -15.5q-113 0 -211.5 37t-171 109.5t-114.5 179t-42 244.5q0 126 40 234t111.5 187 t170.5 124t217 45q112 0 200 -35t149 -95t93.5 -140.5t32.5 -170.5q0 -10 -0.5 -25.5t-1.5 -32.5t-3 -33t-5 -27h-786q0 -220 104 -329.5t290 -109.5q58 0 112 14t101 35t86 45t66 44h34zM400 1289q-26 0 -49.5 8t-41.5 23t-29 37t-11 50q0 31 11 54t29 38.5t41.5 23.5 t49.5 8q30 0 55.5 -7t43.5 -21t28 -35.5t10 -50.5q0 -30 -10.5 -54t-29 -40.5t-43.5 -25t-54 -8.5zM862 1289q-26 0 -49.5 8t-41.5 23t-29 37t-11 50q0 31 11 54t29 38.5t41.5 23.5t49.5 8q30 0 55.5 -7t43.5 -21t28 -35.5t10 -50.5q0 -30 -10.5 -54t-29 -40.5t-43.5 -25 t-54 -8.5z"/>
<glyph glyph-name="igrave" horiz-adv-x="787" unicode="ì" d="M100 82l163 44q17 5 28.5 15.5t11.5 30.5v709q0 20 -11.5 30.5t-27.5 15.5l-162 54v85l410 50v-944q0 -20 12 -31t26 -15l163 -44v-82h-613v82zM470 1225q-69 49 -119 84.5t-87.5 62t-64.5 47t-51 40.5q-21 16 -35.5 29.5t-24.5 27.5t-14.5 30t-4.5 36q0 17 7 33t20 28 t30.5 19.5t38.5 7.5t39 -4t35 -14t34.5 -27.5t37.5 -45.5q19 -27 39.5 -56t46 -65.5t58 -82t75.5 -105.5z"/>
<glyph glyph-name="iacute" horiz-adv-x="787" unicode="í" d="M100 82l163 44q17 5 28.5 15.5t11.5 30.5v709q0 20 -11.5 30.5t-27.5 15.5l-162 54v85l410 50v-944q0 -20 12 -31t26 -15l163 -44v-82h-613v82zM177 1270q43 60 75.5 105.5t58 82t46 65.5t39.5 56q20 28 37.5 45.5t34.5 27.5t35 14t39 4t38.5 -7.5t30.5 -19.5t20 -28 t7 -33q0 -20 -4.5 -36t-14.5 -30t-24.5 -27.5t-35.5 -29.5q-24 -20 -51 -40.5t-64.5 -47t-87.5 -62t-119 -84.5z"/>
<glyph glyph-name="icircumflex" horiz-adv-x="787" unicode="î" d="M239 1577q28 40 56.5 65.5t72.5 25.5t73 -25.5t57 -64.5l218 -308l-60 -45l-287 250l-288 -250l-60 45zM100 82l163 44q17 5 28.5 15.5t11.5 30.5v709q0 20 -11.5 30.5t-27.5 15.5l-162 54v85l410 50v-944q0 -20 12 -31t26 -15l163 -44v-82h-613v82z"/>
<glyph glyph-name="idieresis" horiz-adv-x="787" unicode="ï" d="M100 82l163 44q17 5 28.5 15.5t11.5 30.5v709q0 20 -11.5 30.5t-27.5 15.5l-162 54v85l410 50v-944q0 -20 12 -31t26 -15l163 -44v-82h-613v82zM141 1289q-26 0 -49.5 8t-41.5 23t-29 37t-11 50q0 31 11 54t29 38.5t41.5 23.5t49.5 8q30 0 55.5 -7t43.5 -21t28 -35.5 t10 -50.5q0 -30 -10.5 -54t-29 -40.5t-43.5 -25t-54 -8.5zM589 1289q-26 0 -49.5 8t-41.5 23t-29 37t-11 50q0 31 11 54t29 38.5t41.5 23.5t49.5 8q30 0 55.5 -7t43.5 -21t28 -35.5t10 -50.5q0 -30 -10.5 -54t-29 -40.5t-43.5 -25t-54 -8.5z"/>
<glyph glyph-name="eth" horiz-adv-x="1290" unicode="ð" d="M932 830q-20 13 -51.5 24.5t-66.5 19.5t-69 13t-59 5q-90 0 -154.5 -27.5t-106 -76.5t-61 -117t-19.5 -149q0 -52 6.5 -103.5t21 -98.5t37.5 -87.5t55.5 -70.5t75.5 -47t98 -17q85 0 145 35.5t98 103.5t55 167t17 226q0 24 -2 51t-5 53.5t-7 51t-8 44.5zM417 1258 l200 110q-33 26 -80.5 57t-104.5 60v23l118 50q32 -14 63 -30.5t59.5 -34t52 -34.5t40.5 -32l234 131v-120l-149 -82q78 -67 138 -144t101 -163t62 -182.5t21 -202.5q0 -153 -35 -279.5t-103.5 -217.5t-170.5 -141.5t-235 -50.5q-102 0 -194.5 34t-162.5 101t-111.5 167 t-41.5 232q0 116 37 212.5t103.5 166t159 108t203.5 38.5q57 0 104 -11.5t85 -29t66.5 -39t49.5 -42.5q-17 59 -43 112t-58 100.5t-67 88.5t-70 77l-271 -156v124z"/>
<glyph glyph-name="ntilde" horiz-adv-x="1426" unicode="ñ" d="M105 82l127 44q17 6 27.5 16t10.5 30v721q0 20 -11.5 29.5t-26.5 16.5l-125 54v85l350 50v-173h16q47 60 93.5 96t92 55t90 25t87.5 6q72 0 136.5 -21t113 -66t76.5 -115t28 -167v-591q0 -24 10.5 -35t27.5 -16l112 -44v-82h-500v82l100 44q17 8 29 17.5t12 33.5v498 q0 72 -9 127t-34.5 93t-72.5 57.5t-122 19.5q-33 0 -69.5 -4.5t-71.5 -16t-67 -31.5t-56 -50v-698q0 -20 12.5 -30.5t26.5 -15.5l93 -44v-82h-506v82zM352 1276q7 55 28.5 104t54 86t73.5 59t88 22q31 0 72 -12.5t86 -37.5q51 -27 82 -38t49 -11q22 0 39 9t29 24.5t20 36 t13 44.5h99q-6 -54 -26.5 -103t-52 -86t-72.5 -59t-88 -22q-16 0 -32 2t-34 8t-40 16t-49 26q-48 27 -81.5 38.5t-52.5 11.5q-44 0 -71 -35t-36 -83h-98z"/>
<glyph glyph-name="ograve" horiz-adv-x="1324" unicode="ò" d="M672 98q88 0 147 40.5t93.5 104t49 141t14.5 152.5q0 91 -17.5 177t-56.5 153t-100.5 107.5t-149.5 40.5q-59 0 -104 -18.5t-79 -50.5t-57 -74.5t-37.5 -90.5t-20.5 -99.5t-6 -100.5q0 -55 6.5 -112t22 -110.5t40 -100.5t60.5 -82.5t84.5 -56t110.5 -20.5zM657 -25 q-120 0 -219.5 40t-170.5 114.5t-110 182t-39 242.5q0 124 38.5 230.5t110 185t173 123t227.5 44.5q137 0 238.5 -47t168 -126.5t99.5 -184.5t33 -221q0 -123 -38.5 -229.5t-109.5 -185t-172.5 -123.5t-228.5 -45zM808 1225q-69 49 -119 84.5t-87.5 62t-64.5 47t-51 40.5 q-21 16 -35.5 29.5t-24.5 27.5t-14.5 30t-4.5 36q0 17 7 33t20 28t30.5 19.5t38.5 7.5t39 -4t35 -14t34.5 -27.5t37.5 -45.5q19 -27 39.5 -56t46 -65.5t58 -82t75.5 -105.5z"/>
<glyph glyph-name="oacute" horiz-adv-x="1324" unicode="ó" d="M672 98q88 0 147 40.5t93.5 104t49 141t14.5 152.5q0 91 -17.5 177t-56.5 153t-100.5 107.5t-149.5 40.5q-59 0 -104 -18.5t-79 -50.5t-57 -74.5t-37.5 -90.5t-20.5 -99.5t-6 -100.5q0 -55 6.5 -112t22 -110.5t40 -100.5t60.5 -82.5t84.5 -56t110.5 -20.5zM657 -25 q-120 0 -219.5 40t-170.5 114.5t-110 182t-39 242.5q0 124 38.5 230.5t110 185t173 123t227.5 44.5q137 0 238.5 -47t168 -126.5t99.5 -184.5t33 -221q0 -123 -38.5 -229.5t-109.5 -185t-172.5 -123.5t-228.5 -45zM456 1270q43 60 75.5 105.5t58 82t46 65.5t39.5 56 q20 28 37.5 45.5t34.5 27.5t35 14t39 4t38.5 -7.5t30.5 -19.5t20 -28t7 -33q0 -20 -4.5 -36t-14.5 -30t-24.5 -27.5t-35.5 -29.5q-24 -20 -51 -40.5t-64.5 -47t-87.5 -62t-119 -84.5z"/>
<glyph glyph-name="ocircumflex" horiz-adv-x="1324" unicode="ô" d="M672 98q88 0 147 40.5t93.5 104t49 141t14.5 152.5q0 91 -17.5 177t-56.5 153t-100.5 107.5t-149.5 40.5q-59 0 -104 -18.5t-79 -50.5t-57 -74.5t-37.5 -90.5t-20.5 -99.5t-6 -100.5q0 -55 6.5 -112t22 -110.5t40 -100.5t60.5 -82.5t84.5 -56t110.5 -20.5zM657 -25 q-120 0 -219.5 40t-170.5 114.5t-110 182t-39 242.5q0 124 38.5 230.5t110 185t173 123t227.5 44.5q137 0 238.5 -47t168 -126.5t99.5 -184.5t33 -221q0 -123 -38.5 -229.5t-109.5 -185t-172.5 -123.5t-228.5 -45zM533 1577q28 40 56.5 65.5t72.5 25.5t73 -25.5t57 -64.5 l218 -308l-60 -45l-287 250l-288 -250l-60 45z"/>
<glyph glyph-name="otilde" horiz-adv-x="1324" unicode="õ" d="M672 98q88 0 147 40.5t93.5 104t49 141t14.5 152.5q0 91 -17.5 177t-56.5 153t-100.5 107.5t-149.5 40.5q-59 0 -104 -18.5t-79 -50.5t-57 -74.5t-37.5 -90.5t-20.5 -99.5t-6 -100.5q0 -55 6.5 -112t22 -110.5t40 -100.5t60.5 -82.5t84.5 -56t110.5 -20.5zM657 -25 q-120 0 -219.5 40t-170.5 114.5t-110 182t-39 242.5q0 124 38.5 230.5t110 185t173 123t227.5 44.5q137 0 238.5 -47t168 -126.5t99.5 -184.5t33 -221q0 -123 -38.5 -229.5t-109.5 -185t-172.5 -123.5t-228.5 -45zM296 1276q7 55 28.5 104t54 86t73.5 59t88 22 q31 0 72 -12.5t86 -37.5q51 -27 82 -38t49 -11q22 0 39 9t29 24.5t20 36t13 44.5h99q-6 -54 -26.5 -103t-52 -86t-72.5 -59t-88 -22q-16 0 -32 2t-34 8t-40 16t-49 26q-48 27 -81.5 38.5t-52.5 11.5q-44 0 -71 -35t-36 -83h-98z"/>
<glyph glyph-name="odieresis" horiz-adv-x="1324" unicode="ö" d="M672 98q88 0 147 40.5t93.5 104t49 141t14.5 152.5q0 91 -17.5 177t-56.5 153t-100.5 107.5t-149.5 40.5q-59 0 -104 -18.5t-79 -50.5t-57 -74.5t-37.5 -90.5t-20.5 -99.5t-6 -100.5q0 -55 6.5 -112t22 -110.5t40 -100.5t60.5 -82.5t84.5 -56t110.5 -20.5zM657 -25 q-120 0 -219.5 40t-170.5 114.5t-110 182t-39 242.5q0 124 38.5 230.5t110 185t173 123t227.5 44.5q137 0 238.5 -47t168 -126.5t99.5 -184.5t33 -221q0 -123 -38.5 -229.5t-109.5 -185t-172.5 -123.5t-228.5 -45zM428 1289q-26 0 -49.5 8t-41.5 23t-29 37t-11 50 q0 31 11 54t29 38.5t41.5 23.5t49.5 8q30 0 55.5 -7t43.5 -21t28 -35.5t10 -50.5q0 -30 -10.5 -54t-29 -40.5t-43.5 -25t-54 -8.5zM890 1289q-26 0 -49.5 8t-41.5 23t-29 37t-11 50q0 31 11 54t29 38.5t41.5 23.5t49.5 8q30 0 55.5 -7t43.5 -21t28 -35.5t10 -50.5 q0 -30 -10.5 -54t-29 -40.5t-43.5 -25t-54 -8.5z"/>
<glyph glyph-name="divide" horiz-adv-x="1555" unicode="÷" d="M631 168q0 31 11.5 58t31.5 47t47 31.5t57 11.5q31 0 58 -11.5t47 -31.5t31.5 -47t11.5 -58q0 -30 -11.5 -56.5t-31.5 -46t-47 -31t-58 -11.5q-30 0 -57 11.5t-47 31t-31.5 46t-11.5 56.5zM201 704h1153v-154h-1153v154zM778 931q-30 0 -57 11.5t-47 31.5t-31.5 47 t-11.5 58q0 30 11.5 56.5t31.5 46t47 31t57 11.5q31 0 58 -11.5t47 -31t31.5 -46t11.5 -56.5q0 -31 -11.5 -58t-31.5 -47t-47 -31.5t-58 -11.5z"/>
<glyph glyph-name="oslash" horiz-adv-x="1324" unicode="ø" d="M475 173q37 -35 85.5 -55t111.5 -20q59 0 105 18.5t80 50.5t58 75t38.5 92t21 100.5t6.5 101.5q0 93 -17.5 181t-56.5 155zM847 941q-37 35 -84.5 54t-110.5 19q-58 0 -104 -18.5t-80 -50.5t-58 -74.5t-39 -90.5t-21.5 -99.5t-6.5 -100.5q0 -42 4 -86.5t12.5 -88 t22.5 -85t34 -76.5zM317 90q-94 76 -146.5 193.5t-52.5 270.5q0 124 38.5 230.5t110 185t173 123t227.5 44.5q78 0 142 -16.5t121 -46.5l82 132h106l-113 -182q50 -41 87.5 -93.5t63 -112.5t38 -126t12.5 -134q0 -123 -38.5 -229.5t-109.5 -185t-172.5 -123.5t-228.5 -45 q-75 0 -141 16.5t-124 48.5l-96 -154h-106z"/>
<glyph glyph-name="ugrave" horiz-adv-x="1400" unicode="ù" d="M235 893q0 20 -11.5 30t-25.5 16l-126 54v85l372 50v-687q0 -71 8.5 -126.5t33 -93.5t70.5 -57.5t121 -19.5q34 0 70.5 4.5t71.5 16t66.5 31t55.5 49.5v648q0 20 -11.5 29.5t-27.5 16.5l-125 54v85l373 50v-913q0 -20 11.5 -29.5t26.5 -16.5l125 -54v-85l-350 -50v182 h-15q-47 -61 -93.5 -97t-92.5 -55t-90.5 -25t-87.5 -6q-72 0 -136 21t-111 65.5t-74.5 114.5t-27.5 168v545zM836 1225q-69 49 -119 84.5t-87.5 62t-64.5 47t-51 40.5q-21 16 -35.5 29.5t-24.5 27.5t-14.5 30t-4.5 36q0 17 7 33t20 28t30.5 19.5t38.5 7.5t39 -4t35 -14 t34.5 -27.5t37.5 -45.5q19 -27 39.5 -56t46 -65.5t58 -82t75.5 -105.5z"/>
<glyph glyph-name="uacute" horiz-adv-x="1400" unicode="ú" d="M235 893q0 20 -11.5 30t-25.5 16l-126 54v85l372 50v-687q0 -71 8.5 -126.5t33 -93.5t70.5 -57.5t121 -19.5q34 0 70.5 4.5t71.5 16t66.5 31t55.5 49.5v648q0 20 -11.5 29.5t-27.5 16.5l-125 54v85l373 50v-913q0 -20 11.5 -29.5t26.5 -16.5l125 -54v-85l-350 -50v182 h-15q-47 -61 -93.5 -97t-92.5 -55t-90.5 -25t-87.5 -6q-72 0 -136 21t-111 65.5t-74.5 114.5t-27.5 168v545zM494 1270q43 60 75.5 105.5t58 82t46 65.5t39.5 56q20 28 37.5 45.5t34.5 27.5t35 14t39 4t38.5 -7.5t30.5 -19.5t20 -28t7 -33q0 -20 -4.5 -36t-14.5 -30 t-24.5 -27.5t-35.5 -29.5q-24 -20 -51 -40.5t-64.5 -47t-87.5 -62t-119 -84.5z"/>
<glyph glyph-name="ucircumflex" horiz-adv-x="1400" unicode="û" d="M235 893q0 20 -11.5 30t-25.5 16l-126 54v85l372 50v-687q0 -71 8.5 -126.5t33 -93.5t70.5 -57.5t121 -19.5q34 0 70.5 4.5t71.5 16t66.5 31t55.5 49.5v648q0 20 -11.5 29.5t-27.5 16.5l-125 54v85l373 50v-913q0 -20 11.5 -29.5t26.5 -16.5l125 -54v-85l-350 -50v182 h-15q-47 -61 -93.5 -97t-92.5 -55t-90.5 -25t-87.5 -6q-72 0 -136 21t-111 65.5t-74.5 114.5t-27.5 168v545zM561 1577q28 40 56.5 65.5t72.5 25.5t73 -25.5t57 -64.5l218 -308l-60 -45l-287 250l-288 -250l-60 45z"/>
<glyph glyph-name="udieresis" horiz-adv-x="1400" unicode="ü" d="M235 893q0 20 -11.5 30t-25.5 16l-126 54v85l372 50v-687q0 -71 8.5 -126.5t33 -93.5t70.5 -57.5t121 -19.5q34 0 70.5 4.5t71.5 16t66.5 31t55.5 49.5v648q0 20 -11.5 29.5t-27.5 16.5l-125 54v85l373 50v-913q0 -20 11.5 -29.5t26.5 -16.5l125 -54v-85l-350 -50v182 h-15q-47 -61 -93.5 -97t-92.5 -55t-90.5 -25t-87.5 -6q-72 0 -136 21t-111 65.5t-74.5 114.5t-27.5 168v545zM455 1289q-26 0 -49.5 8t-41.5 23t-29 37t-11 50q0 31 11 54t29 38.5t41.5 23.5t49.5 8q30 0 55.5 -7t43.5 -21t28 -35.5t10 -50.5q0 -30 -10.5 -54t-29 -40.5 t-43.5 -25t-54 -8.5zM917 1289q-26 0 -49.5 8t-41.5 23t-29 37t-11 50q0 31 11 54t29 38.5t41.5 23.5t49.5 8q30 0 55.5 -7t43.5 -21t28 -35.5t10 -50.5q0 -30 -10.5 -54t-29 -40.5t-43.5 -25t-54 -8.5z"/>
<glyph glyph-name="yacute" horiz-adv-x="1294" unicode="ý" d="M108 -255h53q13 -7 34 -14.5t43 -14t41.5 -10.5t29.5 -4q54 0 89 8t61 28q18 14 33.5 36t32 57t36.5 86t46 122l-71 112l-353 792q-8 18 -20 28.5t-28 16.5l-81 40v80h485v-80l-150 -54l256 -562l47 -125h22l250 650l-134 91v80h416v-80l-94 -70q-11 -8 -26.5 -20.5 t-20.5 -26.5l-422 -1083q-38 -98 -82.5 -161.5t-95.5 -101t-107.5 -52t-117.5 -14.5q-11 0 -33.5 2t-49 5t-51 7.5t-38.5 9.5v222zM461 1270q43 60 75.5 105.5t58 82t46 65.5t39.5 56q20 28 37.5 45.5t34.5 27.5t35 14t39 4t38.5 -7.5t30.5 -19.5t20 -28t7 -33 q0 -20 -4.5 -36t-14.5 -30t-24.5 -27.5t-35.5 -29.5q-24 -20 -51 -40.5t-64.5 -47t-87.5 -62t-119 -84.5z"/>
<glyph glyph-name="thorn" horiz-adv-x="1359" unicode="þ" d="M437 180q24 -14 57 -23.5t67.5 -15.5t66.5 -8.5t53 -2.5q86 0 149.5 31.5t105 86.5t62 128.5t20.5 156.5q0 94 -19.5 175.5t-61 141.5t-104.5 94.5t-150 34.5q-26 0 -59 -6t-66.5 -19.5t-65.5 -36.5t-55 -56v-681zM58 -420l132 47q17 6 27.5 15t10.5 29v1692 q0 20 -12.5 30t-25.5 16l-138 64v85h385v-544l-4 -69q4 6 8 11.5t8 11.5q44 58 93.5 91.5t97 51t89 22t69.5 4.5q103 0 185 -40.5t139 -112t87.5 -169.5t30.5 -212q0 -127 -36 -239t-104 -195t-166 -131.5t-221 -48.5q-48 0 -89.5 9t-76 24t-62 34.5t-48.5 40.5v-48v-376 q0 -20 12 -29.5t27 -14.5l160 -49v-81h-578v81z"/>
<glyph glyph-name="dotlessi" horiz-adv-x="787" unicode="ı" d="M100 82l163 44q17 5 28.5 15.5t11.5 30.5v709q0 20 -11.5 30.5t-27.5 15.5l-162 54v85l410 50v-944q0 -20 12 -31t26 -15l163 -44v-82h-613v82z"/>
<glyph glyph-name="circumflex" d="M383 1577q28 40 56.5 65.5t72.5 25.5t73 -25.5t57 -64.5l218 -308l-60 -45l-287 250l-288 -250l-60 45z" unicode="ˆ"/>
<glyph glyph-name="ring" d="M523 1311q55 0 87.5 39.5t32.5 112.5q0 39 -10.5 72t-28.5 57t-43 37t-53 13q-57 0 -91 -39t-34 -115q0 -41 11 -73.5t30 -55.5t44.5 -35.5t54.5 -12.5zM244 1474q0 60 21.5 106.5t59 78.5t88.5 49t110 17q57 0 104.5 -16t81 -47t52.5 -77t19 -105q0 -60 -21.5 -107 t-58.5 -79.5t-86.5 -49t-105.5 -16.5q-57 0 -105.5 16t-84 47t-55 77t-19.5 106z" unicode="˚"/>
<glyph glyph-name="tilde" d="M146 1276q7 55 28.5 104t54 86t73.5 59t88 22q31 0 72 -12.5t86 -37.5q51 -27 82 -38t49 -11q22 0 39 9t29 24.5t20 36t13 44.5h99q-6 -54 -26.5 -103t-52 -86t-72.5 -59t-88 -22q-16 0 -32 2t-34 8t-40 16t-49 26q-48 27 -81.5 38.5t-52.5 11.5q-44 0 -71 -35t-36 -83 h-98z" unicode="˜"/>
<glyph glyph-name="fraction" horiz-adv-x="329" unicode="⁄" d="M613 1558h148l-1032 -1659h-149z"/>
<glyph glyph-name="uni2074" horiz-adv-x="986" unicode="⁴" d="M290 1245h286v326l14 103h-15l-372 -427v-17zM82 1240l542 633h121v-628h170v-118h-170v-139q0 -14 7.5 -21t18.5 -10l104 -31v-80h-430v80l107 31q11 4 17.5 10.5t6.5 20.5v139h-494v113z"/>
<glyph glyph-name="glyph572" d="M658 1573q-69 49 -119 84.5t-87.5 62t-64.5 47t-51 40.5q-21 16 -35.5 29.5t-24.5 27.5t-14.5 30t-4.5 36q0 17 7 33t20 28t30.5 19.5t38.5 7.5t39 -4t35 -14t34.5 -27.5t37.5 -45.5q19 -27 39.5 -56t46 -65.5t58 -82t75.5 -105.5z"/>
<glyph glyph-name="glyph576" d="M306 1618q43 60 75.5 105.5t58 82t46 65.5t39.5 56q20 28 37.5 45.5t34.5 27.5t35 14t39 4t38.5 -7.5t30.5 -19.5t20 -28t7 -33q0 -20 -4.5 -36t-14.5 -30t-24.5 -27.5t-35.5 -29.5q-24 -20 -51 -40.5t-64.5 -47t-87.5 -62t-119 -84.5z"/>
<glyph glyph-name="glyph580" d="M383 1925q28 40 56.5 65.5t72.5 25.5t73 -25.5t57 -64.5l218 -308l-60 -45l-287 250l-288 -250l-60 45z"/>
<glyph glyph-name="glyph589" d="M146 1624q7 55 28.5 104t54 86t73.5 59t88 22q31 0 72 -12.5t86 -37.5q51 -27 82 -38t49 -11q22 0 39 9t29 24.5t20 36t13 44.5h99q-6 -54 -26.5 -103t-52 -86t-72.5 -59t-88 -22q-16 0 -32 2t-34 8t-40 16t-49 26q-48 27 -81.5 38.5t-52.5 11.5q-44 0 -71 -35t-36 -83 h-98z"/>
<glyph glyph-name="glyph593" d="M278 1637q-26 0 -49.5 8t-41.5 23t-29 37t-11 50q0 31 11 54t29 38.5t41.5 23.5t49.5 8q30 0 55.5 -7t43.5 -21t28 -35.5t10 -50.5q0 -30 -10.5 -54t-29 -40.5t-43.5 -25t-54 -8.5zM740 1637q-26 0 -49.5 8t-41.5 23t-29 37t-11 50q0 31 11 54t29 38.5t41.5 23.5t49.5 8 q30 0 55.5 -7t43.5 -21t28 -35.5t10 -50.5q0 -30 -10.5 -54t-29 -40.5t-43.5 -25t-54 -8.5z"/>
<glyph glyph-name="glyph605" d="M523 1619q55 0 87.5 39.5t32.5 112.5q0 39 -10.5 72t-28.5 57t-43 37t-53 13q-57 0 -91 -39t-34 -115q0 -41 11 -73.5t30 -55.5t44.5 -35.5t54.5 -12.5zM244 1782q0 60 21.5 106.5t59 78.5t88.5 49t110 17q57 0 104.5 -16t81 -47t52.5 -77t19 -105q0 -60 -21.5 -107 t-58.5 -79.5t-86.5 -49t-105.5 -16.5q-57 0 -105.5 16t-84 47t-55 77t-19.5 106z"/>
</font>
</defs>
</svg>
